<svg xmlns="http://www.w3.org/2000/svg" version="1.1" width="3508" height="2480"><rect id="backgroundrect" width="100%" height="100%" x="0" y="0" fill="none" stroke="none"/>
























































































































































































































































































































<g class="currentLayer" style=""><title>Layer 1</title><rect fill="#dadada" stroke-dashoffset="" fill-rule="nonzero" id="svg_5" x="962.8571426868439" y="634.7142853736877" width="1917" height="1197" style="color: rgb(0, 0, 0);" class="" fill-opacity="1" opacity="1" stroke="#000000" stroke-opacity="1" filter="url(#f157)" rx="20" ry="20" stroke-width="7"/><path d="M2680,1405 C2712.34,1405 2744.68,1405 2778,1405 C2778,1437.34 2778,1469.68 2778,1503 C2745.66,1503 2713.32,1503 2680,1503 C2680,1470.66 2680,1438.32 2680,1405 zM2709,1439 C2704.97,1444.79 2703.55,1451.04 2704.18,1458.03 C2705.55,1465.13 2709.72,1471.56 2715.44,1475.94 C2720.89,1479.41 2726.58,1480.65 2733,1480 C2740.38,1477.9 2747.08,1474.62 2751.28,1467.98 C2754.64,1461.53 2756.13,1455.61 2754.35,1448.35 C2751.92,1440.79 2748.66,1435.91 2741.9,1431.69 C2730.09,1425.68 2717.61,1429.31 2709,1439 z" fill="#D6A616" id="svg_16"/><path d="M1086,665 C1118.34,665 1150.68,665 1184,665 C1184,697.34 1184,729.6800000000001 1184,763 C1151.66,763 1119.32,763 1086,763 C1086,730.66 1086,698.32 1086,665 zM1114,698.38 C1109.55,704.72 1107.96,711.33 1109,719 C1111.41,726.87 1115.48,732.87 1122.81,736.81 C1130.12,740.15 1135.83,740.69 1143.54,738.08 C1151.11,734.76 1155.84,729.76 1159.25,722.25 C1161.16,713.97 1160.28,707.34 1156,700 C1152.21,694.2 1147.52,691.09 1141,689 C1130.05,687.34 1121.16,689.76 1114,698.38 z" fill="#D7A715" id="svg_17"/><path d="M2757.3125,1117.25 C2767.2925,1124.77 2775.2525,1135.34 2777.7525,1147.82 C2779.4625,1162.96 2776.3025,1176.24 2767.1525,1188.48 C2759.3825,1197.72 2749.0425,1204.14 2737.0025,1206 C2721.4525,1207.04 2709.0025,1203.98 2696.6225,1194.11 C2689.9725,1188.05 2686.5525,1181.14 2683.0025,1173 C2682.6125,1172.24 2682.2325,1171.48 2681.8325,1170.7 C2678.6525,1160.42 2679.8725,1146.53 2684.3425,1136.92 C2691.4725,1124.38 2700.5025,1115.39 2714.1925,1110.44 C2729.6525,1106.4 2743.8925,1108.51 2757.3125,1117.25 zM2713.8325,1139.73 C2709.1125,1144.78 2706.1825,1150.31 2705.9125,1157.29 C2706.4025,1164.57 2709.0025,1170.48 2714.4325,1175.37 C2719.8725,1179.89 2725.1225,1180.46 2732.0025,1180.3 C2739.5325,1179.54 2743.7625,1175.7 2748.5525,1170.1 C2752.4825,1164.4 2752.8525,1158.73 2752.0025,1152 C2750.0025,1145.51 2746.7625,1140.89 2741.1225,1137.12 C2732.1125,1132.37 2721.8125,1133.36 2713.8325,1139.73 z" fill="#DAA914" id="svg_28"/><path d="M1726.25,1703.5625 C1727.07,1703.5725 1727.9,1703.5825 1728.75,1703.5825 C1739.96,1703.8825 1749.16,1707.0925 1758,1714.0025 C1759.22,1714.9025 1759.22,1714.9025 1760.46,1715.8125 C1770.02,1724.0425 1775.44,1735.9425 1776.41,1748.3625 C1777.09,1762.4625 1773.24,1774.1325 1764,1785.0025 C1758.42,1790.9025 1752.5,1794.9225 1745,1798.0025 C1744.23,1798.3225 1743.46,1798.6425 1742.67,1798.9725 C1730.89,1803.1825 1718.44,1801.8625 1707.26,1796.7425 C1694.96,1790.5025 1686.2,1781.8925 1681.69,1768.7525 C1677.37,1754.9725 1678.09,1742.4125 1684.29,1729.2725 C1691,1717.1825 1701.49,1708.8125 1714.6,1704.6025 C1718.49,1703.6225 1722.25,1703.5125 1726.25,1703.5625 zM1707.68,1739.7425 C1704.27,1745.4825 1704.16,1751.4925 1705,1758.0025 C1706.81,1764.6525 1711.43,1769.1625 1717,1773.0025 C1723.05,1775.9125 1729.3,1776.0925 1735.73,1774.1925 C1742.25,1771.3325 1746.03,1767.4525 1749,1761.0025 C1751.3,1754.8125 1751.41,1749.6125 1749.16,1743.3925 C1746.15,1737.2125 1742.27,1733.2225 1735.94,1730.5025 C1724.95,1726.7725 1714.62,1730.5725 1707.68,1739.7425 z" fill="#DAA914" id="svg_29"/><path d="M2490,1708 C2493.21,1709.77 2496.11,1711.75 2499,1714 C2500.03,1714.74 2501.06,1715.48 2502.12,1716.25 C2511.26,1724.99 2517.12,1736.21 2517.43,1748.94 C2517.46,1764 2513.11,1776.68 2502.47,1787.75 C2491.59,1797.67 2479.14,1801.78 2464.5,1801.32 C2452.2,1800.21 2440.41,1794.04 2432,1785 C2422.37,1772.82 2418.66,1759.42 2420,1744 C2422.42,1732.18 2429.23,1720.26 2439,1713 C2455.06,1703.56 2472.37,1700.01 2490,1708 zM2450,1738 C2445.89,1744.23 2444.96,1750.66 2446,1758 C2447.86,1764.64 2452.42,1769.15 2458,1773 C2464.04,1775.9 2470.33,1776.13 2476.73,1774.16 C2484.2,1770.81 2488.26,1766.08 2491.44,1758.62 C2492.6,1751.15 2491.86,1745.01 2487.45,1738.75 C2482.49,1732.75 2476.69,1729.6 2469.06,1728.62 C2461.44,1729.56 2455.04,1732.03 2450,1738 z" fill="#DAA914" id="svg_30"/><path d="M2022.3125,1703.75 C2023.0725,1703.76 2023.8225,1703.77 2024.6025,1703.77 C2038.3725,1704.05 2049.7125,1708.88 2059.7425,1718.53 C2069.1925,1728.89 2073.7725,1741.07 2073.2525,1755.08 C2072.9125,1758.96 2072.3125,1762.34 2071.0025,1766 C2070.6825,1766.92 2070.3625,1767.85 2070.0325,1768.8 C2065.1825,1781.66 2057.2825,1790.49 2044.9025,1796.5 C2032.4325,1801.92 2020.1125,1802.79 2007.1325,1798.32 C1992.5025,1792.15 1984.0125,1782.42 1978.0025,1768 C1974.3325,1757.5 1974.1325,1743.72 1978.6825,1733.48 C1986.4625,1718.86 1995.4725,1711.06 2010.8425,1704.85 C2014.7025,1703.81 2018.3525,1703.7 2022.3125,1703.75 zM2007.0625,1736.75 C2002.4325,1742.64 2000.1925,1748.44 2001.0025,1756 C2002.6425,1762.52 2005.5725,1767.69 2011.1925,1771.48 C2017.1325,1774.81 2022.2425,1776.03 2029.0025,1775 C2035.3625,1773.06 2040.6725,1769.58 2044.3325,1763.96 C2047.5625,1757.51 2048.3725,1751.28 2046.1525,1744.36 C2043.4325,1738.2 2039.9125,1734.23 2034.0025,1731 C2024.1025,1727.24 2014.4125,1728.84 2007.0625,1736.75 z" fill="#DAA914" id="svg_31"/><path d="M1874.3125,1703.75 C1875.0725,1703.76 1875.8225,1703.77 1876.6025,1703.77 C1890.3725,1704.05 1901.7125,1708.88 1911.7425,1718.53 C1921.1925,1728.89 1925.7725,1741.07 1925.2525,1755.08 C1924.9125,1758.96 1924.3125,1762.34 1923.0025,1766 C1922.6825,1766.92 1922.3625,1767.85 1922.0325,1768.8 C1917.1825,1781.66 1909.2825,1790.49 1896.9025,1796.5 C1884.4325,1801.92 1872.1125,1802.79 1859.1325,1798.32 C1844.5025,1792.15 1836.0125,1782.42 1830.0025,1768 C1826.0325,1756.58 1826.4025,1742.93 1831.3925,1731.93 C1838.0525,1719.8 1846.8225,1710.72 1860.0025,1706 C1860.9025,1705.64 1861.8125,1705.28 1862.7425,1704.91 C1866.6425,1703.82 1870.3025,1703.7 1874.3125,1703.75 zM1859.0625,1736.75 C1854.7925,1742.23 1852.6425,1746.98 1853.0625,1754 C1854.0925,1761.02 1856.2825,1765.96 1861.9325,1770.37 C1868.3625,1774.95 1874.2425,1775.85 1882.0025,1775 C1888.7025,1773.16 1893.0825,1768.56 1897.0025,1763 C1899.9025,1757.2 1900.1025,1750.49 1898.1625,1744.34 C1895.4125,1738.2 1891.9125,1734.23 1886.0025,1731 C1876.1025,1727.24 1866.4125,1728.84 1859.0625,1736.75 z" fill="#DAA914" id="svg_32"/><path d="M2202.5,1713.03125 C2211.83,1720.37125 2217.93,1730.55125 2221,1742.00125 C2222.61,1757.14125 2220.09,1770.54125 2211,1783.00125 C2202.28,1793.52125 2190.33,1799.91125 2176.7,1801.35125 C2162.62,1801.73125 2149.09,1797.41125 2138.62,1787.74125 C2128.29,1776.61125 2123.56,1763.55125 2123.73,1748.50125 C2124.71,1735.85125 2130.82,1724.20125 2140.05,1715.56125 C2158.54,1700.77125 2182.86,1699.55125 2202.5,1713.03125 zM2155,1737.00125 C2150.68,1743.42125 2148.83,1749.29125 2150,1757.00125 C2152.14,1764.01125 2156.32,1769.73125 2162.69,1773.44125 C2168.59,1776.02125 2174.6,1776.06125 2180.71,1774.15125 C2188.2,1770.83125 2192.26,1766.08125 2195.44,1758.62125 C2196.6,1751.15125 2195.86,1745.00125 2191.45,1738.75125 C2186.49,1732.75125 2180.69,1729.60125 2173.06,1728.62125 C2166.21,1729.46125 2159.54,1731.51125 2155,1737.00125 z" fill="#DAA914" id="svg_33"/><path d="M1608.50390625,1713.0390625 C1617.46390625,1720.0790625 1624.64390625,1730.7090625 1627.00390625,1741.9990625 C1628.43390625,1758.2090625 1625.80390625,1772.3790625 1615.18390625,1785.1890625 C1606.51390625,1794.4190625 1595.33390625,1800.0190625 1582.70390625,1801.3490625 C1568.61390625,1801.7390625 1555.08390625,1797.4090625 1544.61390625,1787.7390625 C1534.28390625,1776.6090625 1529.55390625,1763.5490625 1529.72390625,1748.4990625 C1530.71390625,1735.8490625 1536.82390625,1724.2090625 1546.05390625,1715.5590625 C1564.53390625,1700.7790625 1588.87390625,1699.5390625 1608.50390625,1713.0390625 zM1561.00390625,1736.9990625 C1556.68390625,1743.4190625 1554.82390625,1749.2890625 1556.00390625,1756.9990625 C1558.13390625,1764.0090625 1562.31390625,1769.7290625 1568.68390625,1773.4390625 C1574.59390625,1776.0290625 1580.59390625,1776.0590625 1586.71390625,1774.1490625 C1594.05390625,1770.8990625 1598.12390625,1766.1790625 1601.37390625,1758.9390625 C1602.95390625,1751.4990625 1601.74390625,1745.5490625 1598.00390625,1738.9990625 C1592.90390625,1732.9690625 1586.85390625,1729.6190625 1579.06390625,1728.6290625 C1572.20390625,1729.4690625 1565.54390625,1731.5090625 1561.00390625,1736.9990625 z" fill="#DAA914" id="svg_34"/><path d="M1280.3125,1703.75 C1281.0725,1703.76 1281.8225,1703.77 1282.6025,1703.77 C1296.3725,1704.05 1307.7125,1708.88 1317.7425,1718.53 C1326.8925,1728.56 1331.9325,1740.88 1331.4525,1754.54 C1330.0925,1765 1326.5925,1774.69 1320.0025,1783 C1319.4225,1783.87 1318.8425,1784.73 1318.2525,1785.63 C1309.5625,1794.79 1297.5325,1800.24 1285.0225,1801.24 C1270.0325,1801.6 1257.8625,1796.4 1246.7525,1786.44 C1236.2925,1775.44 1233.3925,1761.51 1233.6925,1746.93 C1233.9625,1741.02 1235.1825,1736.22 1238.0025,1731 C1238.7425,1729.6 1238.7425,1729.6 1239.5125,1728.18 C1248.0625,1713.58 1263.1125,1703.52 1280.3125,1703.75 zM1262.5625,1739.7 C1259.0925,1744.81 1258.4725,1749.95 1259.0025,1756 C1260.6125,1762.84 1264.0925,1768.46 1270.0425,1772.32 C1276.9025,1775.78 1283.3725,1776.11 1290.6925,1773.87 C1297.1625,1770.21 1301.6125,1766.5 1304.3325,1759.42 C1306.3725,1751.99 1305.3425,1745.96 1301.6125,1739.27 C1297.4625,1733.45 1292.0125,1730.3 1285.0025,1729 C1275.6425,1727.75 1268.2325,1732.72 1262.5625,1739.7 z" fill="#DAA914" id="svg_35" class=""/><path d="M1458.7578125,673.48046875 C1470.0878125,681.16046875 1476.6778125,691.84046875 1479.9978125,705.00046875 C1481.4178125,720.68046875 1477.8078125,734.73046875 1467.8778125,747.12046875 C1463.5678125,751.8004687499999 1458.5578125,754.99046875 1452.9978125,758.00046875 C1452.2178125,758.44046875 1451.4278125,758.87046875 1450.6178125,759.32046875 C1440.5378125,763.94046875 1426.9478125,763.59046875 1416.2978125,761.15046875 C1413.3078125,760.00046875 1410.7278125,758.69046875 1407.9978125,757.00046875 C1407.0378125,756.4104687500001 1406.0778125,755.81046875 1405.0878125,755.20046875 C1396.1578125,749.19046875 1390.2778125,741.82046875 1385.9978125,732.00046875 C1385.6078125,731.13046875 1385.2178125,730.27046875 1384.8078125,729.37046875 C1380.7978125,717.64046875 1382.1678125,704.22046875 1386.9978125,693.00046875 C1393.7478125,679.70046875 1403.6378125,672.74046875 1416.9978125,667.00046875 C1430.9778125,662.84046875 1446.7578125,665.80046875 1458.7578125,673.48046875 zM1412.4078125,701.00046875 C1407.9878125,707.27046875 1408.1878125,713.48046875 1408.9978125,721.00046875 C1411.1078125,726.99046875 1415.8178125,731.48046875 1420.9978125,735.00046875 C1426.5278125,737.65046875 1432.4278125,737.94046875 1438.3278125,736.38046875 C1445.1078125,733.77046875 1449.9778125,729.14046875 1453.1678125,722.61046875 C1455.0978125,716.56046875 1455.0578125,709.46046875 1452.4378125,703.62046875 C1448.6978125,697.29046875 1442.9878125,693.17046875 1435.9978125,691.00046875 C1425.9578125,689.50046875 1418.7078125,693.37046875 1412.4078125,701.00046875 z" fill="#DAA914" id="svg_36"/><path d="M1457.1875,1710.6875 C1468.5075,1717.9975 1475.5275,1728.2375 1479.4375,1741.0675 C1481.6575,1756.5775 1478.7275,1769.9775 1469.7375,1782.8075 C1462.2175,1792.2875 1451.3275,1798.6575 1439.3575,1800.7475 C1424.3775,1802.3375 1412.0575,1799.1375 1399.9975,1789.9975 C1390.0675,1781.8875 1384.7775,1770.5175 1382.9975,1757.9975 C1381.9475,1743.9275 1384.7175,1732.3175 1393.3875,1721.0175 C1410.1375,1701.6575 1435.3175,1698.6875 1457.1875,1710.6875 zM1412.4175,1738.7375 C1408.9375,1744.2975 1407.4675,1749.5975 1408.4975,1756.1275 C1410.2875,1762.9675 1413.1075,1768.0675 1419.1275,1771.9375 C1424.9875,1775.3075 1430.3375,1775.6275 1436.9975,1774.9975 C1443.6375,1773.1975 1448.1675,1768.5575 1451.9975,1762.9975 C1454.9375,1756.9975 1455.1275,1750.0675 1453.3475,1743.6475 C1450.7375,1737.8475 1446.5375,1733.6275 1440.7575,1730.9675 C1429.8775,1727.0275 1419.6875,1729.4275 1412.4175,1738.7375 z" fill="#DAA914" id="svg_37"/><path d="M2758,1267 C2768.44,1274.66 2775.5,1286.22 2778,1299 C2779.21,1312.89 2776.63,1325.51 2767.93,1336.79 C2760.04,1345.81 2749.27,1353.68 2737,1355 C2722.12,1355.82 2709.04,1353.75 2697.12,1344.12 C2691.35,1338.72 2687.06,1332.27 2684,1325 C2683.7,1324.32 2683.4,1323.64 2683.09,1322.94 C2679.31,1312.8 2679.13,1299.44 2683.12,1289.38 C2684.03,1287.56 2684.99,1285.76 2686,1284 C2686.47,1283.18 2686.94,1282.36 2687.42,1281.52 C2694.51,1270.14 2705.19,1261.82 2718.31,1258.43 C2732.64,1256.12 2745.95,1259.02 2758,1267 zM2711.62,1291.19 C2707.48,1296.62 2705.65,1302.23 2706,1309.06 C2706.96,1315.74 2710.12,1320.08 2714.75,1324.81 C2720.9,1328.95 2726.55,1330.71 2733.93,1329.51 C2736.94,1328.77 2739.36,1327.62 2742,1326 C2742.85,1325.48 2743.69,1324.97 2744.56,1324.44 C2749.6,1319.4 2752.28,1313.51 2752.56,1306.38 C2752.15,1298.85 2749.56,1294.18 2744.06,1289.12 C2738.67,1284.52 2733.8,1283.53 2726.85,1283.69 C2720.7,1284.36 2715.88,1286.69 2711.62,1291.19 z" fill="#DAA914" id="svg_38"/><path d="M2346.1875,1710.6875 C2357.5075,1717.9975 2364.5275,1728.2375 2368.4375,1741.0675 C2370.5675,1755.9475 2368.1675,1770.4375 2359.0275,1782.6375 C2350.4675,1792.7475 2339.1175,1798.8675 2325.9975,1800.9975 C2310.9275,1802.2475 2298.6175,1797.8575 2286.9775,1788.3475 C2277.4575,1779.5175 2272.7175,1767.5675 2271.7575,1754.8075 C2271.4375,1740.3075 2275.4975,1728.9775 2284.9975,1717.9975 C2302.5175,1701.4575 2325.3375,1699.2475 2346.1875,1710.6875 zM2301.4175,1738.7375 C2297.9375,1744.2975 2296.4675,1749.5975 2297.4975,1756.1275 C2299.2875,1762.9675 2302.1075,1768.0675 2308.1275,1771.9375 C2313.9875,1775.3075 2319.3375,1775.6275 2325.9975,1774.9975 C2332.6375,1773.1975 2337.1675,1768.5575 2340.9975,1762.9975 C2343.9375,1756.9975 2344.1275,1750.0675 2342.3475,1743.6475 C2339.7375,1737.8475 2335.5375,1733.6275 2329.7575,1730.9675 C2318.8775,1727.0275 2308.6875,1729.4275 2301.4175,1738.7375 z" fill="#DAA914" id="svg_39"/><path d="M2347.7578125,673.48046875 C2358.5778125,680.81046875 2366.0778125,691.46046875 2368.6478125,704.36046875 C2370.6578125,719.31046875 2367.3078125,732.55046875 2358.6978125,744.86046875 C2352.0278125,753.35046875 2341.6278125,759.98046875 2330.9978125,762.00046875 C2319.2078125,763.33046875 2307.3478125,763.40046875 2296.9978125,757.00046875 C2296.0378125,756.4104687500001 2295.0778125,755.81046875 2294.0878125,755.20046875 C2285.1578125,749.19046875 2279.2778125,741.82046875 2274.9978125,732.00046875 C2274.6078125,731.13046875 2274.2178125,730.27046875 2273.8078125,729.37046875 C2269.7978125,717.64046875 2271.1678125,704.22046875 2275.9978125,693.00046875 C2282.7478125,679.70046875 2292.6378125,672.74046875 2305.9978125,667.00046875 C2319.9778125,662.84046875 2335.7578125,665.80046875 2347.7578125,673.48046875 zM2301.4078125,701.00046875 C2297.9278125,705.93046875 2296.5378125,711.05046875 2297.2478125,717.09046875 C2298.9478125,724.97046875 2303.5078125,730.42046875 2309.9978125,735.00046875 C2315.5278125,737.65046875 2321.4278125,737.94046875 2327.3278125,736.38046875 C2334.1078125,733.77046875 2338.9778125,729.14046875 2342.1678125,722.61046875 C2344.0978125,716.56046875 2344.0578125,709.46046875 2341.4378125,703.62046875 C2337.6978125,697.29046875 2331.9878125,693.17046875 2324.9978125,691.00046875 C2314.9578125,689.50046875 2307.7078125,693.37046875 2301.4078125,701.00046875 z" fill="#DAA914" id="svg_40"/><path d="M2728.0625,961.75 C2728.9625,961.73 2729.8725,961.71 2730.8025,961.69 C2744.3925,961.61 2754.8025,966.99 2764.7525,976.06 C2774.5525,986.36 2778.5725,999.63 2778.3125,1013.6 C2776.9925,1027.95 2769.8825,1039.83 2759.0025,1049 C2749.6525,1055.73 2740.6625,1058.58 2729.1825,1058.5 C2727.7325,1058.49 2727.7325,1058.49 2726.2525,1058.48 C2718.6225,1058.3 2712.6125,1056.96 2706.0025,1053 C2704.7925,1052.33 2704.7925,1052.33 2703.5625,1051.65 C2692.9125,1045.22 2686.4825,1035.41 2682.0025,1024 C2679.1025,1009.28 2680.5325,996.36 2688.1225,983.37 C2697.5525,969.37 2711.3425,961.84 2728.0625,961.75 zM2709.6025,997.71 C2705.8025,1003.14 2705.6325,1008.22 2706.4625,1014.57 C2708.0225,1021.62 2712.6925,1026.74 2718.5625,1030.75 C2723.4825,1033.28 2728.5525,1033.74 2734.0025,1033 C2740.8625,1030.7 2746.0825,1027.11 2750.0025,1021 C2752.8025,1015.27 2752.9925,1008.69 2751.3525,1002.57 C2748.5625,995.49 2744.1625,991.75 2737.6225,988.13 C2726.0225,984.52 2717.1125,988.52 2709.6025,997.71 z" fill="#DAA914" id="svg_41" class=""/><path d="M2468.25,665.5 C2469.63,665.51 2469.63,665.51 2471.04,665.52 C2484.74,665.87 2496.3,671.74 2505.75,681.69 C2515.66,693.71 2518.29,706.93 2517,722 C2514.56,735.77 2507.16,746.72 2496,755 C2483.24,762.79 2467.71,764.55 2453.18,761.09 C2441.05,756.26 2430.31,746.8 2424.54,735.03 C2419.19,722.57 2417.83,709.7 2422.75,696.81 C2428.54,683.82 2437.65,673.71 2450.96,668.19 C2456.76,666.04 2462.08,665.46 2468.25,665.5 zM2449.34,701 C2445.43,706.83 2445.23,713.17 2446,720 C2448.2,727.68 2453.6,732.11 2460.37,735.88 C2466.97,737.92 2472.84,737.67 2479.22,734.98 C2482.03,733.4300000000001 2483.92,731.42 2486,729 C2486.72,728.22 2487.44,727.43 2488.19,726.62 C2491.95,721.17 2492.44,715.89 2491.6,709.49 C2489.88,702.35 2484.96,697.05 2479,693 C2468.04,687.87 2456.54,691.78 2449.34,701 z" fill="#DAA914" id="svg_42"/><path d="M2023.125,665.75 C2024.495,665.72 2024.495,665.72 2025.895,665.69 C2032.145,665.65 2037.215,666.63 2043.005,669 C2044.035,669.42 2044.035,669.42 2045.105,669.85 C2056.785,674.79 2065.605,685.84 2070.375,697.31 C2075.415,710.56 2073.145,723.24 2068.005,736 C2062.125,747.59 2051.955,756.12 2039.855,760.64 C2034.635,762.31 2029.645,762.54 2024.185,762.5 C2022.735,762.49 2022.735,762.49 2021.255,762.48 C2013.625,762.3 2007.615,760.96 2001.005,757 C2000.205,756.5699999999999 1999.415,756.13 1998.605,755.6800000000001 C1987.355,748.94 1979.825,738.28 1976.365,725.68 C1974.875,714.68 1974.705,702.97 1980.005,693 C1980.485,692.08 1980.975,691.16 1981.475,690.21 C1990.575,674.58 2005.165,665.85 2023.125,665.75 zM2004.605,701.71 C2000.765,707.19 2000.685,712.24 2001.525,718.64 C2002.975,725.86 2007.305,730.02 2013.065,734.25 C2018.115,737.26 2023.205,737.79 2029.005,737 C2035.865,734.7 2041.075,731.11 2045.005,725 C2047.855,719.15 2048.115,712.52 2046.165,706.34 C2042.865,698.98 2038.255,694.95 2031.005,691.63 C2019.645,689.26 2011.855,692.84 2004.605,701.71 z" fill="#DAA914" id="svg_43"/><path d="M2172.25,665.5 C2173.17,665.5 2174.09,665.51 2175.03,665.52 C2182.91,665.72 2189.01,667.21 2196,671 C2196.83,671.45 2197.65,671.89 2198.5,672.35 C2209.29,678.89 2217,689.86 2220.57,701.93 C2222.58,711.63 2222.11,723.99 2218,733 C2217.67,733.74 2217.34,734.48 2217,735.24 C2211.92,745.41 2204.16,753.04 2194,758 C2193.23,758.41 2192.46,758.83 2191.66,759.25 C2181.36,763.94 2166.51,763.96 2155.81,760.44 C2142.25,754.3199999999999 2132.6,744.71 2127,731 C2122.3,718.49 2122.81,706.29 2128,694 C2134.9,680.68 2145.17,671.2 2159.54,666.61 C2163.77,665.56 2167.91,665.47 2172.25,665.5 zM2154,700 C2150.13,705.96 2148.93,711.99 2150,719 C2151.84,725.74 2155.19,730.17 2161,734 C2166.99,737.33 2172.55,738.1 2179.18,736.46 C2186.07,734.1 2190.37,730.38 2194,724 C2196.55,717.7 2196.57,711.46 2194.32,705.05 C2191.29,699.07 2185.99,694.43 2180,691.56 C2169.77,689.65 2160.92,691.97 2154,700 z" fill="#DAA914" id="svg_44"/><path d="M1875.125,665.75 C1876.495,665.72 1876.495,665.72 1877.895,665.69 C1884.145,665.65 1889.215,666.63 1895.005,669 C1895.695,669.28 1896.385,669.56 1897.105,669.85 C1909.785,675.21 1917.985,686.79 1923.015,699.07 C1927.285,711.81 1925.315,724.72 1919.745,736.69 C1913.605,747.86 1904.745,755.25 1893.005,760 C1892.115,760.37 1891.225,760.75 1890.305,761.13 C1879.465,763.99 1865.465,763.61 1855.465,758.48 C1854.655,757.99 1853.835,757.5 1853.005,757 C1851.795,756.33 1851.795,756.33 1850.565,755.65 C1839.915,749.22 1833.485,739.41 1829.005,728 C1826.105,713.28 1827.535,700.36 1835.125,687.37 C1844.575,673.34 1858.375,665.84 1875.125,665.75 zM1856.605,701.71 C1852.765,707.19 1852.685,712.24 1853.525,718.64 C1854.975,725.86 1859.305,730.02 1865.065,734.25 C1870.115,737.26 1875.205,737.79 1881.005,737 C1887.865,734.7 1893.075,731.11 1897.005,725 C1899.805,719.27 1899.985,712.69 1898.345,706.57 C1895.855,700.21 1892.075,696.15 1886.055,692.97 C1874.185,687.93 1864.415,692.15 1856.605,701.71 z" fill="#DAA914" id="svg_45"/><path d="M1753.94921875,672.76171875 C1764.43921875,679.82171875 1771.27921875,688.90171875 1774.99921875,701.00171875 C1777.70921875,716.27171875 1776.53921875,728.78171875 1768.13921875,741.91171875 C1760.12921875,752.54171875 1750.45921875,757.85171875 1737.99921875,762.00171875 C1722.78921875,763.35171875 1709.86921875,762.37171875 1697.66921875,752.46171875 C1686.78921875,742.93171875 1679.83921875,731.51171875 1678.77921875,716.93171875 C1678.37921875,702.22171875 1682.95921875,690.06171875 1692.99921875,679.25171875 C1709.61921875,663.33171875 1734.30921875,661.03171875 1753.94921875,672.76171875 zM1708.15921875,701.15171875 C1704.37921875,707.17171875 1704.29921875,713.08171875 1704.99921875,720.00171875 C1706.78921875,726.70171875 1711.44921875,731.09171875 1716.99921875,735.00171875 C1722.97921875,737.92171875 1729.81921875,737.92171875 1736.12921875,735.94171875 C1741.79921875,733.53171875 1745.56921875,729.20171875 1748.87921875,724.12171875 C1751.24921875,717.54171875 1751.69921875,711.80171875 1749.12921875,705.20171875 C1745.79921875,698.71171875 1741.16921875,694.21171875 1734.31921875,691.63171875 C1723.89921875,688.80171875 1714.82921875,692.93171875 1708.15921875,701.15171875 z" fill="#DAA914" id="svg_46"/><path d="M1308.5703125,672.57421875 C1319.1903125,680.29421875 1328.1803125,691.70421875 1330.7503125,704.84421875 C1332.4003125,718.91421875 1329.6303125,732.57421875 1320.8103125,743.8942187499999 C1320.2103125,744.59421875 1319.6103125,745.28421875 1319.0003125,746.0042187500001 C1318.4503125,746.6442187499999 1317.9103125,747.28421875 1317.3503125,747.95421875 C1309.6603125,756.29421875 1299.0503125,761.87421875 1287.6603125,762.43421875 C1285.7903125,762.45421875 1283.9303125,762.45421875 1282.0603125,762.43421875 C1281.1403125,762.45421875 1280.2103125,762.47421875 1279.2603125,762.49421875 C1267.3303125,762.49421875 1255.9303125,756.85421875 1247.2503125,748.7542187500001 C1237.2703125,738.01421875 1233.3703125,725.33421875 1233.5303125,710.94421875 C1233.7703125,704.37421875 1234.9403125,698.87421875 1238.0003125,693.00421875 C1238.4503125,692.13421875 1238.8903125,691.26421875 1239.3603125,690.36421875 C1244.6903125,680.80421875 1251.3903125,675.08421875 1261.0003125,670.00421875 C1261.7003125,669.58421875 1262.4003125,669.16421875 1263.1203125,668.73421875 C1276.7003125,661.82421875 1296.0603125,664.91421875 1308.5703125,672.57421875 zM1264.0003125,700.00421875 C1263.4403125,700.61421875 1262.8903125,701.23421875 1262.3103125,701.87421875 C1258.5103125,708.03421875 1258.5503125,714.14421875 1260.0003125,721.00421875 C1262.0803125,727.71421875 1266.0403125,731.46421875 1272.0003125,735.00421875 C1277.7103125,737.67421875 1283.6603125,738.16421875 1289.6203125,736.09421875 C1296.5903125,732.86421875 1300.0703125,729.46421875 1303.8103125,722.75421875 C1305.9603125,715.95421875 1305.9203125,710.31421875 1303.0003125,703.75421875 C1299.6603125,697.73421875 1295.1703125,694.45421875 1289.0003125,691.62421875 C1278.9303125,689.52421875 1270.7503125,692.05421875 1264.0003125,700.00421875 z" fill="#DAA914" id="svg_47"/><path d="M1578.25,665.5 C1579.17,665.5 1580.09,665.51 1581.03,665.52 C1588.91,665.72 1595.01,667.21 1602,671 C1602.81,671.43 1603.63,671.87 1604.47,672.32 C1616.23,679.38 1622.74,690.23 1627,703 C1628.47,719.48 1626.04,733.8199999999999 1615.41,746.96 C1610.96,751.75 1605.7,754.89 1600,758 C1598.91,758.6 1597.81,759.2 1596.69,759.81 C1586.49,764.3199999999999 1571.1,763.6800000000001 1560.75,759.94 C1546.92,753.5699999999999 1537.27,742.54 1532.03,728.38 C1528,715.5 1529.36,702.97 1535.54,691.02 C1542.7,679.15 1552.26,670.85 1565.54,666.61 C1569.77,665.56 1573.91,665.47 1578.25,665.5 zM1561,699 C1556.75,705.31 1554.54,711.4 1556,719 C1558.83,727.21 1562.75,731.67 1570.31,735.81 C1576.9,737.9300000000001 1582.78,737.71 1589.15,734.97 C1596.5,731.12 1599.49,725.54 1602,718 C1602.56,711.01 1600.96,705.05 1597.19,699.19 C1591.91,693.91 1586.53,691.29 1579.13,690.69 C1572.17,690.9 1565.56,693.63 1561,699 z" fill="#DAA914" id="svg_48"/><path d="M2628.41796875,1280.65234375 C2634.17796875,1283.25234375 2638.37796875,1287.68234375 2641.13796875,1293.33234375 C2643.24796875,1299.86234375 2642.95796875,1307.56234375 2640.43796875,1313.94234375 C2637.58796875,1319.46234375 2632.79796875,1323.73234375 2626.99796875,1326.00234375 C2619.13796875,1326.83234375 2611.46796875,1327.02234375 2604.99796875,1322.00234375 C2599.65796875,1316.51234375 2597.42796875,1310.73234375 2597.49796875,1303.12234375 C2597.50796875,1302.42234375 2597.50796875,1301.71234375 2597.51796875,1300.98234375 C2597.74796875,1294.02234375 2599.70796875,1290.26234375 2604.52796875,1285.49234375 C2611.49796875,1279.30234375 2619.39796875,1278.22234375 2628.41796875,1280.65234375 z" fill="#000000" id="svg_90" class="" fill-opacity="1"/><path d="M1709,807 C1724.18,807 1739.36,807 1755,807 C1756.46,811.37 1756.27,815.61 1756.31,820.19 C1756.34,821.11 1756.37,822.03 1756.4,822.98 C1756.46,829.18 1755.57,833.84 1752,839 C1748.62,842 1745.52,842.52 1741,842.37 C1737.66,841.75 1735.63,840.1 1733,838 C1732.69,838.9 1732.69,838.9 1732.38,839.81 C1730.36,843.01 1728.56,843.77 1725,845 C1721.03,845.31 1717.6,844.98 1714.16,842.87 C1709.47,838.67 1708.24,833.57 1707.83,827.42 C1707.77,824.65 1707.78,821.89 1707.81,819.12 C1707.81,818.18 1707.81,817.23 1707.81,816.25 C1707.86,809.28 1707.86,809.28 1709,807 z" fill="#000000" id="svg_94" class="" fill-opacity="1"/><path d="M1860,807 C1875.51,807 1891.02,807 1907,807 C1907.06,811 1907.12,815 1907.19,819.12 C1907.23,821 1907.23,821 1907.27,822.91 C1907.32,830.13 1906.83,834.83 1901.88,840.38 C1897.89,842.63 1894.48,842.84 1890,842 C1886.94,840 1886.94,840 1885,838 C1884.38,838.8 1883.76,839.61 1883.12,840.44 C1880.82,843.22 1880.12,843.87 1876.61,844.27 C1867.93,844.58 1867.93,844.58 1864.5,842 C1858.9,835.28 1858.56,828.58 1858.75,820.19 C1858.76,819.25 1858.76,818.31 1858.77,817.34 C1858.84,810.47 1858.84,810.47 1860,807 z" fill="#000000" id="svg_95" class="" fill-opacity="1"/><path d="M2638,987 C2643.18,990.94 2646.46,996.23 2647.39,1002.68 C2647.64,1008.96 2646.75,1013.88 2643,1019 C2637.57,1024.69 2631.92,1026.78 2624.19,1027.21 C2614.15,1027.38 2614.15,1027.38 2610,1026 C2610,1012.47 2610,998.94 2610,985 C2618.45,982.18 2630,983.15 2638,987 z" fill="#000000" id="svg_110" class="" fill-opacity="1"/><path d="M1901.1796875,1638.5625 C1904.6296875,1641.2825 1907.6896875,1644.4625 1908.2396875,1648.9525 C1908.4196875,1654.5325 1907.7696875,1657.6125 1903.9996875,1662.0025 C1896.3096875,1668.9225 1888.6396875,1669.3625 1878.5496875,1669.2825 C1871.9296875,1668.7525 1867.0096875,1666.6825 1861.9396875,1662.4425 C1858.0596875,1657.5625 1858.3996875,1651.9625 1858.9996875,1646.0025 C1861.4896875,1640.5325 1864.7696875,1638.5225 1869.9996875,1636.0025 C1879.5496875,1633.1225 1892.6396875,1633.3225 1901.1796875,1638.5625 z" fill="#000000" id="svg_111" class="" fill-opacity="1"/><path d="M2463,1130 C2466.63,1130 2470.26,1130 2474,1130 C2475.02,1134.59 2476.04,1139.18 2477.04,1143.78 C2477.29,1144.95 2477.29,1144.95 2477.55,1146.14 C2477.9,1147.74 2478.24,1149.35 2478.59,1150.95 C2479.14,1154.79 2479.14,1154.79 2481,1158 C2483.31,1150.41 2485.62,1142.82 2488,1135 C2490.97,1135 2493.94,1135 2497,1135 C2497.41,1136.34 2497.82,1137.67 2498.24,1139.05 C2498.79,1140.8 2499.33,1142.56 2499.88,1144.31 C2500.14,1145.19 2500.41,1146.07 2500.69,1146.98 C2500.96,1147.83 2501.22,1148.68 2501.49,1149.55 C2501.73,1150.33 2501.97,1151.11 2502.22,1151.92 C2503,1154.25 2503,1154.25 2505,1157 C2506.98,1148.09 2508.96,1139.18 2511,1130 C2514.3,1130 2517.6,1130 2521,1130 C2520.28,1137.07 2518.79,1143.89 2517.19,1150.81 C2516.94,1151.92 2516.69,1153.04 2516.44,1154.18 C2514.79,1161.34 2512.69,1168.16 2510,1175 C2507.03,1175 2504.06,1175 2501,1175 C2497.58,1166.78 2494.77,1158.46 2492,1150 C2489.36,1158.25 2486.72,1166.5 2484,1175 C2480.7,1175 2477.4,1175 2474,1175 C2471.07,1164.73 2468.3,1154.42 2465.69,1144.06 C2465.42,1143.01 2465.15,1141.97 2464.88,1140.89 C2464.63,1139.9 2464.39,1138.92 2464.14,1137.91 C2463.92,1137.03 2463.7,1136.16 2463.47,1135.26 C2463,1133 2463,1133 2463,1130 z" fill="#000000" id="svg_112" class="" fill-opacity="1"/><path d="M2515,1281 C2518.63,1281 2522.26,1281 2526,1281 C2526.84,1284.89 2527.67,1288.79 2528.5,1292.69 C2528.74,1293.79 2528.98,1294.89 2529.22,1296.03 C2529.45,1297.1 2529.67,1298.16 2529.91,1299.26 C2530.12,1300.24 2530.33,1301.22 2530.54,1302.23 C2530.98,1304.88 2531.09,1307.32 2531,1310 C2531.66,1310 2532.32,1310 2533,1310 C2533.25,1308.82 2533.49,1307.65 2533.75,1306.44 C2535.27,1299.57 2537.16,1292.79 2539,1286 C2542.3,1286 2545.6,1286 2549,1286 C2549.63,1288.11 2549.63,1288.11 2550.28,1290.27 C2550.83,1292.12 2551.38,1293.96 2551.94,1295.81 C2552.35,1297.21 2552.35,1297.21 2552.78,1298.63 C2553.05,1299.52 2553.31,1300.41 2553.59,1301.33 C2553.96,1302.57 2553.96,1302.57 2554.34,1303.82 C2554.86,1305.56 2555.43,1307.28 2556,1309 C2558.8,1299.8 2560.43,1290.47 2562,1281 C2565.63,1281 2569.26,1281 2573,1281 C2570.33,1296 2566.45,1310.44 2562,1325 C2558.7,1325 2555.4,1325 2552,1325 C2548.82,1317.1 2546.04,1309.27 2544,1301 C2541.02,1308.91 2538.42,1316.9 2536,1325 C2532.7,1325 2529.4,1325 2526,1325 C2523.07,1317.4 2520.75,1309.79 2518.81,1301.88 C2518.55,1300.86 2518.29,1299.84 2518.03,1298.79 C2516.55,1292.85 2515.53,1287.1 2515,1281 z" fill="#000000" id="svg_113" class="" fill-opacity="1"/><path d="M2024,857 C2026.54,858.06 2027.91,859.13 2030,861 C2030,861.66 2030,862.32 2030,863 C2030.76,862.17 2031.53,861.35 2032.31,860.5 C2036.08,857.37 2039.6,857.29 2044.37,857.51 C2048.56,858.29 2050.19,859.83 2053,863 C2056.25,868.1 2055.58,874.19 2055,880 C2053.19,884.04 2051.8,885.48 2048.12,887.88 C2044.69,889.11 2042.61,889.53 2039,889 C2035.62,887.12 2035.62,887.12 2033,885 C2033,884.34 2033,883.68 2033,883 C2032.34,883 2031.68,883 2031,883 C2030.69,883.9 2030.69,883.9 2030.38,884.81 C2028.41,887.94 2026.43,888.71 2023,890 C2018.85,890.52 2016.61,890.29 2012.81,888.5 C2008.51,884.67 2006.47,881.03 2005.58,875.32 C2005.24,868.7 2006.56,863.99 2011,859 C2015.25,856.17 2019.01,856.35 2024,857 z" fill="#000000" id="svg_115" class="" fill-opacity="1"/><path d="M1120.877197265625,1630.886474609375 C1122.607197265625,1630.886474609375 1124.337197265625,1630.896474609375 1126.067197265625,1630.906474609375 C1126.977197265625,1630.906474609375 1127.887197265625,1630.906474609375 1128.817197265625,1630.906474609375 C1131.737197265625,1630.916474609375 1134.647197265625,1630.926474609375 1137.567197265625,1630.936474609375 C1139.537197265625,1630.946474609375 1141.507197265625,1630.946474609375 1143.477197265625,1630.946474609375 C1148.317197265625,1630.966474609375 1153.157197265625,1630.976474609375 1157.997197265625,1630.996474609375 C1158.047197265625,1633.866474609375 1158.077197265625,1636.736474609375 1158.107197265625,1639.606474609375 C1158.117197265625,1640.406474609375 1158.137197265625,1641.216474609375 1158.147197265625,1642.036474609375 C1158.197197265625,1649.836474609375 1157.117197265625,1656.806474609375 1151.497197265625,1662.566474609375 C1150.677197265625,1663.036474609375 1149.847197265625,1663.506474609375 1148.997197265625,1663.996474609375 C1148.427197265625,1664.356474609375 1147.857197265625,1664.706474609375 1147.267197265625,1665.066474609375 C1141.487197265625,1667.436474609375 1132.787197265625,1667.066474609375 1126.937197265625,1664.876474609375 C1121.327197265625,1661.296474609375 1117.887197265625,1656.346474609375 1115.997197265625,1649.996474609375 C1115.647197265625,1646.856474609375 1115.667197265625,1643.776474609375 1115.747197265625,1640.626474609375 C1115.757197265625,1639.806474609375 1115.757197265625,1638.986474609375 1115.767197265625,1638.146474609375 C1115.857197265625,1631.036474609375 1115.857197265625,1631.036474609375 1120.877197265625,1630.886474609375 z" fill="#000000" id="svg_127" class="" fill-opacity="1"/><path d="M2304,805 C2320.38,810.36 2336.56,816.31 2352,824 C2352,827.3 2352,830.6 2352,834 C2343.8,838.28 2335.52,841.92 2326.88,845.19 C2325.77,845.61 2324.67,846.04 2323.54,846.47 C2317.09,848.93 2310.64,851.1 2304,853 C2304,849.37 2304,845.74 2304,842 C2306.97,840.68 2309.94,839.36 2313,838 C2313.33,831.73 2313.66,825.46 2314,819 C2309.55,818.01 2309.55,818.01 2305,817 C2304,816 2304,816 2303.9,813.5 C2303.91,812.49 2303.93,811.48 2303.94,810.44 C2303.95,809.43 2303.96,808.41 2303.96,807.37 C2303.98,806.59 2303.99,805.81 2304,805 z" fill="#000000" id="svg_131" class="" fill-opacity="1"/><path d="M2007,805 C2014.34,807.38 2021.55,810.04 2028.75,812.81 C2029.9,813.25 2031.04,813.69 2032.23,814.15 C2039.97,817.15 2047.57,820.3 2055,824 C2055,827.3 2055,830.6 2055,834 C2046.9,838.27 2038.66,841.85 2030.09,845.04 C2028.17,845.76 2026.25,846.48 2024.34,847.21 C2018.6,849.36 2012.91,851.37 2007,853 C2007,849.04 2007,845.08 2007,841 C2009.97,840.01 2012.94,839.02 2016,838 C2016,832.06 2016,826.12 2016,820 C2013.03,819.01 2010.06,818.02 2007,817 C2007,813.04 2007,809.08 2007,805 z" fill="#000000" id="svg_132" class="" fill-opacity="1"/><path d="M1859,1584 C1862.9,1584.78 1866.14,1585.68 1869.83,1587.04 C1870.95,1587.45 1872.08,1587.86 1873.23,1588.29 C1874.41,1588.73 1875.59,1589.17 1876.81,1589.62 C1878.02,1590.07 1879.22,1590.52 1880.46,1590.98 C1889.45,1594.35 1898.29,1597.97 1907,1602 C1907,1605.63 1907,1609.26 1907,1613 C1895.37,1618.21 1883.73,1623.26 1871.75,1627.62 C1870.35,1628.14 1870.35,1628.14 1868.92,1628.66 C1862.39,1631 1862.39,1631 1859,1631 C1859,1627.37 1859,1623.74 1859,1620 C1866.62,1617 1866.62,1617 1870,1617 C1870,1610.73 1870,1604.46 1870,1598 C1865.55,1597.01 1865.55,1597.01 1861,1596 C1860.34,1595.67 1859.68,1595.34 1859,1595 C1859,1591.37 1859,1587.74 1859,1584 z" fill="#000000" id="svg_133" class="" fill-opacity="1"/><path d="M2303,1580 C2311.69,1582.18 2319.87,1585.12 2328.19,1588.44 C2329.41,1588.92 2330.63,1589.39 2331.88,1589.88 C2338.08,1592.34 2344.1,1594.89 2350,1598 C2350,1601.63 2350,1605.26 2350,1609 C2340.17,1613.97 2330.03,1618.03 2319.75,1621.94 C2319.1,1622.19 2318.44,1622.44 2317.77,1622.7 C2315.88,1623.42 2314,1624.13 2312.11,1624.84 C2311.01,1625.26 2309.9,1625.67 2308.76,1626.1 C2306,1627 2306,1627 2303,1627 C2303,1623.37 2303,1619.74 2303,1616 C2309.62,1613 2309.62,1613 2313,1613 C2313,1606.73 2313,1600.46 2313,1594 C2309.7,1593.01 2306.4,1592.02 2303,1591 C2303,1587.37 2303,1583.74 2303,1580 z" fill="#000000" id="svg_134" class="" fill-opacity="1"/><path d="M2155,806 C2161.65,807.32 2167.75,809.22 2174.06,811.69 C2174.97,812.04 2175.87,812.39 2176.81,812.75 C2199.65,821.65 2199.65,821.65 2202,824 C2202.07,825.85 2202.08,827.71 2202.06,829.56 C2202.05,830.57 2202.04,831.59 2202.04,832.63 C2202.02,833.41 2202.01,834.19 2202,835 C2171.09,848.09 2171.09,848.09 2155,853 C2155,849.04 2155,845.08 2155,841 C2157.97,840.01 2160.94,839.02 2164,838 C2164,832.06 2164,826.12 2164,820 C2161.03,819.01 2158.06,818.02 2155,817 C2155,813.37 2155,809.74 2155,806 z" fill="#000000" id="svg_135" class="" fill-opacity="1"/><path d="M2006,1580 C2013.4,1582.14 2020.61,1584.6 2027.81,1587.31 C2028.86,1587.71 2029.91,1588.1 2030.99,1588.51 C2038.49,1591.35 2045.81,1594.42 2053,1598 C2053,1601.63 2053,1605.26 2053,1609 C2043.17,1613.97 2033.03,1618.03 2022.75,1621.94 C2022.1,1622.19 2021.44,1622.44 2020.77,1622.7 C2018.88,1623.42 2017,1624.13 2015.11,1624.84 C2014.01,1625.26 2012.9,1625.67 2011.76,1626.1 C2009,1627 2009,1627 2006,1627 C2006,1623.37 2006,1619.74 2006,1616 C2012.62,1613 2012.62,1613 2016,1613 C2016,1606.73 2016,1600.46 2016,1594 C2012.7,1593.01 2009.4,1592.02 2006,1591 C2006,1587.37 2006,1583.74 2006,1580 z" fill="#000000" id="svg_136" class="" fill-opacity="1"/><path d="M2452,1580 C2457.26,1581.05 2461.98,1582.67 2467,1584.5 C2468.43,1585.02 2468.43,1585.02 2469.9,1585.55 C2480.1,1589.32 2490.06,1593.61 2500,1598 C2500,1601.63 2500,1605.26 2500,1609 C2488.35,1614.22 2476.69,1619.27 2464.69,1623.62 C2463.27,1624.14 2463.27,1624.14 2461.83,1624.66 C2455.28,1627 2455.28,1627 2453,1627 C2453,1623.37 2453,1619.74 2453,1616 C2459.62,1613 2459.62,1613 2463,1613 C2463,1606.73 2463,1600.46 2463,1594 C2458.55,1593.01 2458.55,1593.01 2454,1592 C2453.34,1591.67 2452.68,1591.34 2452,1591 C2452,1587.37 2452,1583.74 2452,1580 z" fill="#000000" id="svg_137" class="" fill-opacity="1"/><path d="M2154,1580 C2160.83,1581.98 2167.49,1584.2 2174.12,1586.75 C2175.03,1587.09 2175.93,1587.44 2176.85,1587.79 C2185.01,1590.95 2193.03,1594.39 2201,1598 C2201,1601.63 2201,1605.26 2201,1609 C2190.12,1614.09 2179.18,1618.83 2167.94,1623.06 C2166.9,1623.46 2165.86,1623.85 2164.79,1624.26 C2157.38,1627 2157.38,1627 2154,1627 C2154,1623.37 2154,1619.74 2154,1616 C2160.62,1613 2160.62,1613 2164,1613 C2164,1606.73 2164,1600.46 2164,1594 C2160.7,1593.01 2157.4,1592.02 2154,1591 C2154,1587.37 2154,1583.74 2154,1580 z" fill="#000000" id="svg_140" class="" fill-opacity="1"/><path d="M2454,806 C2462.05,807.48 2469.35,810.28 2476.94,813.31 C2478.75,814.02 2478.75,814.02 2480.61,814.75 C2487.6,817.52 2494.33,820.53 2501,824 C2501,827.3 2501,830.6 2501,834 C2491.66,839.23 2481.86,843.11 2471.88,846.88 C2471.22,847.12 2470.57,847.37 2469.9,847.62 C2458.86,851.78 2458.86,851.78 2454,853 C2454,849.04 2454,845.08 2454,841 C2456.97,840.01 2459.94,839.02 2463,838 C2463,832.06 2463,826.12 2463,820 C2460.03,819.01 2457.06,818.02 2454,817 C2454,813.37 2454,809.74 2454,806 z" fill="#000000" id="svg_141" class="" fill-opacity="1"/><path d="M2337.91796875,858.875 C2344.93796875,862.665 2348.55796875,868.145 2351.30796875,875.495 C2352.09796875,879.485 2352.13796875,882.955 2351.99796875,886.995 C2349.02796875,886.995 2346.05796875,886.995 2342.99796875,886.995 C2342.93796875,885.675 2342.87796875,884.365 2342.80796875,882.995 C2342.25796875,877.885 2340.41796875,873.865 2336.99796875,869.995 C2336.00796875,869.665 2335.01796875,869.345 2333.99796875,868.995 C2334.04796875,870.085 2334.04796875,870.085 2334.10796875,871.195 C2334.38796875,881.365 2334.38796875,881.365 2330.99796875,885.995 C2327.34796875,889.465 2324.40796875,890.305 2319.49796875,890.495 C2314.57796875,890.295 2311.69796875,889.425 2307.99796875,885.995 C2303.81796875,880.455 2302.28796875,875.945 2302.99796875,868.995 C2305.04796875,863.185 2308.76796875,859.565 2314.30796875,856.885 C2322.13796875,854.315 2330.55796875,855.455 2337.91796875,858.875 z" fill="#000000" id="svg_142" class="" fill-opacity="1"/><path d="M1897.0390625,855.3203125 C1902.4090625,859.5003125 1904.8790625,864.6503125 1906.9990625,871.0003125 C1907.0690625,872.7303125 1907.0890625,874.4603125 1907.0590625,876.1903125 C1907.0490625,877.0903125 1907.0490625,877.9903125 1907.0390625,878.9203125 C1907.0190625,879.6003125 1907.0090625,880.2903125 1906.9990625,881.0003125 C1904.3590625,881.0003125 1901.7190625,881.0003125 1898.9990625,881.0003125 C1898.8990625,880.3503125 1898.8090625,879.7003125 1898.6990625,879.0203125 C1897.7390625,873.4003125 1896.7190625,869.3903125 1892.9990625,865.0003125 C1892.0090625,864.6703125 1891.0190625,864.3403125 1889.9990625,864.0003125 C1890.0490625,864.8703125 1890.0490625,864.8703125 1890.1090625,865.7603125 C1890.2890625,870.9703125 1890.0090625,874.5303125 1886.9990625,879.0003125 C1882.1490625,883.3803125 1879.0990625,884.4203125 1872.6790625,884.3403125 C1867.1090625,883.6303125 1863.3890625,880.7703125 1859.9990625,876.4403125 C1858.1390625,870.0303125 1857.7790625,863.6203125 1860.6290625,857.5003125 C1870.6090625,846.9903125 1885.3890625,847.7803125 1897.0390625,855.3203125 z" fill="#000000" id="svg_143" class="" fill-opacity="1"/><path d="M1264,1631 C1267.3,1631.66 1270.6,1632.32 1274,1633 C1273.67,1634.65 1273.34,1636.3 1273,1638 C1272.86,1640.35 1272.78,1642.71 1272.75,1645.06 C1272.72,1646.27 1272.7,1647.48 1272.67,1648.72 C1273.02,1652.22 1273.49,1653.59 1276,1656 C1278.96,1656.83 1278.96,1656.83 1282,1656 C1286.35,1651.41 1286.63,1647.04 1287,1641 C1289.97,1641 1292.94,1641 1296,1641 C1296.15,1643.1 1296.15,1643.1 1296.31,1645.25 C1296.87,1650.23 1296.87,1650.23 1300,1654 C1302.54,1654.5 1302.54,1654.5 1305,1654 C1307.24,1652.18 1307.24,1652.18 1307.27,1649.57 C1307.26,1648.15 1307.26,1648.15 1307.25,1646.69 C1307.26,1645.74 1307.26,1644.8 1307.27,1643.82 C1306.99,1640.87 1306.23,1638.68 1305,1636 C1311.75,1632 1311.75,1632 1314,1632 C1318.27,1640.18 1319.95,1649.24 1317.32,1658.37 C1315.82,1661.26 1313.98,1663.02 1311.38,1664.94 C1306.82,1666.37 1302.73,1666.86 1298,1666 C1295.5,1664.57 1294.01,1663.12 1292,1661 C1290.92,1662.42 1290.92,1662.42 1289.81,1663.88 C1286.5,1667.8 1283.79,1668.8 1278.69,1669.38 C1274.1,1668.91 1270.7,1667.78 1267,1665 C1265.24,1662.73 1264.22,1660.64 1263,1658 C1262.67,1657.34 1262.34,1656.68 1262,1656 C1261.76,1652.92 1261.81,1649.84 1261.81,1646.75 C1261.8,1645.9 1261.79,1645.06 1261.78,1644.18 C1261.76,1639.38 1262.13,1635.51 1264,1631 z" fill="#000000" id="svg_145" class="" fill-opacity="1"/><path d="M1264,1544 C1270.62,1543.88 1270.62,1543.88 1274,1545 C1273.76,1546.02 1273.76,1546.02 1273.52,1547.06 C1272.92,1550.43 1272.79,1553.64 1272.75,1557.06 C1272.72,1558.27 1272.7,1559.48 1272.67,1560.72 C1273.02,1564.22 1273.49,1565.59 1276,1568 C1278.96,1568.83 1278.96,1568.83 1282,1568 C1286.35,1563.41 1286.63,1559.04 1287,1553 C1289.97,1553 1292.94,1553 1296,1553 C1296.15,1555.1 1296.15,1555.1 1296.31,1557.25 C1296.87,1562.23 1296.87,1562.23 1300,1566 C1302.54,1566.5 1302.54,1566.5 1305,1566 C1307.24,1564.18 1307.24,1564.18 1307.27,1561.57 C1307.26,1560.15 1307.26,1560.15 1307.25,1558.69 C1307.26,1557.74 1307.26,1556.8 1307.27,1555.82 C1306.99,1552.87 1306.23,1550.68 1305,1548 C1311.75,1544 1311.75,1544 1314,1544 C1318.39,1551.41 1318.99,1558.51 1318,1567 C1316.8,1571.21 1315.06,1573.97 1311.94,1577 C1307.29,1578.58 1302.84,1578.79 1298,1578 C1295.43,1576.59 1294.02,1575.19 1292,1573 C1290.92,1574.42 1290.92,1574.42 1289.81,1575.88 C1286.33,1580 1283.56,1580.82 1278.19,1581.44 C1273.34,1581.28 1269.41,1579.44 1266,1576 C1262.09,1570.26 1261.42,1565.13 1261.62,1558.31 C1261.63,1557.48 1261.63,1556.66 1261.63,1555.8 C1261.69,1551.44 1261.98,1547.96 1264,1544 z" fill="#000000" id="svg_146" class="" fill-opacity="1"/><path d="M1118,847 C1132.19,847 1146.38,847 1161,847 C1161,856 1161,856 1158.22,859.07 C1157,859.97 1155.76,860.85 1154.5,861.69 C1153.9,862.12 1153.3,862.56 1152.68,863 C1150.8,864.36 1148.9,865.68 1147,867 C1144.36,868.98 1141.72,870.96 1139,873 C1146.26,873.33 1153.52,873.66 1161,874 C1161,877.3 1161,880.6 1161,884 C1146.81,884 1132.62,884 1118,884 C1118,876 1118,876 1119.42,874.19 C1120.07,873.82 1120.73,873.44 1121.4,873.06 C1122.49,872.4 1122.49,872.4 1123.6,871.73 C1124.37,871.3 1125.14,870.88 1125.94,870.44 C1132.41,866.66 1138,862.67 1144,858 C1131.13,857.5 1131.13,857.5 1118,857 C1118,853.7 1118,850.4 1118,847 z" fill="#000000" id="svg_154" class="" fill-opacity="1"/><path d="M1564,1554 C1572.28,1556.33 1580.2,1559.32 1588.19,1562.5 C1589.43,1562.99 1590.68,1563.48 1591.92,1563.97 C1597.65,1566.24 1603.36,1568.53 1609,1571 C1609,1574.3 1609,1577.6 1609,1581 C1599.14,1585.99 1588.96,1590.04 1578.62,1593.94 C1577.63,1594.31 1577.63,1594.31 1576.62,1594.7 C1565.22,1599 1565.22,1599 1564,1599 C1564,1595.37 1564,1591.74 1564,1588 C1570.62,1585 1570.62,1585 1574,1585 C1574,1579.06 1574,1573.12 1574,1567 C1571.69,1566.67 1569.38,1566.34 1567,1566 C1566.01,1565.67 1565.02,1565.34 1564,1565 C1564,1561.37 1564,1557.74 1564,1554 z" fill="#000000" id="svg_160" class="" fill-opacity="1"/><path d="M1416,1554 C1424.3,1556.34 1432.24,1559.32 1440.25,1562.5 C1441.5,1562.99 1442.76,1563.48 1444.01,1563.97 C1449.46,1566.12 1454.78,1568.32 1460,1571 C1460,1574.3 1460,1577.6 1460,1581 C1445.52,1587.3 1431.11,1593.37 1416,1598 C1416,1594.37 1416,1590.74 1416,1587 C1421,1585 1421,1585 1425,1585 C1425,1579.06 1425,1573.12 1425,1567 C1422.03,1566.01 1419.06,1565.02 1416,1564 C1416,1560.7 1416,1557.4 1416,1554 z" fill="#000000" id="svg_172" class="" fill-opacity="1"/><path d="M2565,985 C2573,985 2573,985 2575.47,986.8 C2576.47,988.04 2576.47,988.04 2577.5,989.31 C2578.61,990.66 2578.61,990.66 2579.75,992.04 C2583.25,996.64 2586.67,1001.27 2590,1006 C2590.33,999.07 2590.66,992.14 2591,985 C2594.3,985 2597.6,985 2601,985 C2601,998.53 2601,1012.06 2601,1026 C2598.03,1026 2595.06,1026 2592,1026 C2589.91,1023.8 2589.91,1023.8 2588.5,1020.75 C2585.44,1014.68 2581.9,1009.71 2577.72,1004.4 C2576,1002 2576,1002 2576,1000 C2575.34,1000 2574.68,1000 2574,1000 C2574,1008.58 2574,1017.16 2574,1026 C2571.03,1026 2568.06,1026 2565,1026 C2565,1012.47 2565,998.94 2565,985 z" fill="#000000" id="svg_173" class="" fill-opacity="1"/><path d="M2605,1130 C2608.3,1130 2611.6,1130 2615,1130 C2615.33,1134.95 2615.66,1139.9 2616,1145 C2617.2,1143.82 2618.39,1142.65 2619.62,1141.44 C2620.36,1140.71 2621.1,1139.99 2621.87,1139.25 C2623.76,1137.25 2625.2,1135.26 2626.75,1133 C2628.82,1130.45 2629.71,1130.04 2633.04,1129.57 C2636.06,1129.56 2639,1129.69 2642,1130 C2638.1,1135.74 2633.65,1140.51 2628.52,1145.14 C2626.91,1146.61 2626.91,1146.61 2625,1149 C2625,1151.59 2625.57,1152.52 2627.28,1154.43 C2627.83,1154.91 2628.37,1155.38 2628.94,1155.88 C2632.62,1159.37 2635.51,1163.25 2638.44,1167.38 C2638.89,1168.01 2639.34,1168.64 2639.8,1169.29 C2643,1173.86 2643,1173.86 2643,1175 C2638.85,1175.62 2635.13,1175.83 2631,1175 C2627.59,1172.14 2625.39,1168.72 2623,1165 C2620,1160.93 2620,1160.93 2616,1158 C2615.67,1163.61 2615.34,1169.22 2615,1175 C2611.7,1175 2608.4,1175 2605,1175 C2605,1160.15 2605,1145.3 2605,1130 z" fill="#000000" id="svg_175" class="" fill-opacity="1"/><path d="M2463,1630 C2470.76,1630 2473.48,1630.04 2479.38,1633.94 C2480.33,1634.54 2480.33,1634.54 2481.31,1635.15 C2488.01,1639.47 2494.36,1644.36 2500,1650 C2500,1653.3 2500,1656.6 2500,1660 C2490.43,1660 2480.86,1660 2471,1660 C2471,1661.65 2471,1663.3 2471,1665 C2468.36,1665 2465.72,1665 2463,1665 C2463,1663.35 2463,1661.7 2463,1660 C2459.7,1660 2456.4,1660 2453,1660 C2453,1656.7 2453,1653.4 2453,1650 C2456.3,1650 2459.6,1650 2463,1650 C2463,1643.4 2463,1636.8 2463,1630 z" fill="#000000" id="svg_176" class="" fill-opacity="1"/><path d="M2547,1461 C2550.96,1461 2554.92,1461 2559,1461 C2562.18,1468.64 2564.93,1476.4 2567.63,1484.22 C2567.92,1485.06 2568.21,1485.91 2568.51,1486.78 C2568.77,1487.55 2569.04,1488.31 2569.31,1489.1 C2569.98,1491.05 2569.98,1491.05 2571,1493 C2574.23,1486.13 2576.8,1479.12 2579.25,1471.94 C2579.61,1470.88 2579.98,1469.82 2580.35,1468.74 C2581.24,1466.16 2582.12,1463.58 2583,1461 C2586.96,1461 2590.92,1461 2595,1461 C2592.68,1469.24 2589.72,1477.11 2586.56,1485.06 C2586.08,1486.28 2585.61,1487.49 2585.12,1488.74 C2582.55,1495.23 2579.89,1501.65 2577,1508 C2573.37,1508 2569.74,1508 2566,1508 C2561.71,1499.79 2558.07,1491.49 2554.81,1482.81 C2554.18,1481.15 2554.18,1481.15 2553.53,1479.45 C2551.2,1473.34 2549.01,1467.21 2547,1461 z" fill="#000000" id="svg_178" class="" fill-opacity="1"/><path d="M1312,842 C1312,845.63 1312,849.26 1312,853 C1307.62,854.57 1303.24,856.14 1298.87,857.7 C1297.37,858.23 1295.89,858.77 1294.4,859.3 C1292.26,860.07 1290.12,860.83 1287.98,861.59 C1287.31,861.83 1286.64,862.07 1285.95,862.32 C1281.23,864 1281.23,864 1279,864 C1279,864.66 1279,865.32 1279,866 C1279.87,866.25 1279.87,866.25 1280.76,866.51 C1287.63,868.53 1294.38,870.81 1301.12,873.19 C1302.18,873.56 1303.23,873.92 1304.31,874.3 C1306.88,875.2 1309.44,876.1 1312,877 C1312,880.63 1312,884.26 1312,888 C1306.83,887.34 1302.28,885.82 1297.44,884 C1296.63,883.7 1295.81,883.4 1294.98,883.09 C1267.85,872.85 1267.85,872.85 1265,870 C1264.93,868.15 1264.92,866.29 1264.94,864.44 C1264.95,863.43 1264.96,862.41 1264.96,861.37 C1264.98,860.59 1264.99,859.81 1265,859 C1290.41,848.11 1290.41,848.11 1300.31,844.31 C1302.1,843.63 1302.1,843.63 1303.93,842.93 C1307,842 1307,842 1312,842 z" fill="#000000" id="svg_179" class="" fill-opacity="1"/><path d="M1117,1586 C1130.2,1586 1143.4,1586 1157,1586 C1157,1594 1157,1594 1155.23,1596.47 C1154.41,1597.14 1153.59,1597.81 1152.75,1598.5 C1151.4,1599.61 1151.4,1599.61 1150.02,1600.75 C1145.14,1604.38 1140.13,1607.72 1135,1611 C1142.59,1611.33 1150.18,1611.66 1158,1612 C1158,1614.97 1158,1617.94 1158,1621 C1144.47,1621 1130.94,1621 1117,1621 C1117,1613 1117,1613 1118.54,1611.07 C1119.25,1610.64 1119.96,1610.21 1120.69,1609.77 C1121.47,1609.28 1122.25,1608.78 1123.06,1608.28 C1123.88,1607.79 1124.71,1607.31 1125.56,1606.81 C1127.17,1605.82 1128.77,1604.83 1130.38,1603.83 C1131.46,1603.19 1131.46,1603.19 1132.55,1602.54 C1135.79,1600.5 1138.88,1598.23 1142,1596 C1133.75,1595.67 1125.5,1595.34 1117,1595 C1117,1592.03 1117,1589.06 1117,1586 z" fill="#000000" id="svg_181" class="" fill-opacity="1"/><path d="M1450.875,805.9375 C1456.175,811.0875 1458.095,817.1075 1458.315,824.3775 C1458.235,829.5375 1457.115,833.3175 1454.995,837.9975 C1452.355,837.6675 1449.725,837.3375 1446.995,836.9975 C1445.875,833.2475 1445.875,833.2475 1446.995,830.9975 C1447.485,825.6175 1447.915,820.6975 1445.315,815.8775 C1440.825,812.2375 1436.945,811.6075 1431.285,811.7475 C1426.975,812.2275 1423.425,813.5575 1420.325,816.7075 C1418.565,819.7575 1418.665,821.9375 1418.755,825.4375 C1418.765,826.5475 1418.785,827.6575 1418.795,828.8075 C1418.975,831.6375 1419.365,834.2375 1419.995,836.9975 C1416.625,838.4975 1414.795,838.9975 1410.995,838.9975 C1407.535,830.8375 1406.315,822.1075 1409.255,813.5575 C1412.435,807.0775 1415.655,804.1675 1421.995,800.9975 C1432.395,797.6475 1442.125,800.0375 1450.875,805.9375 z" fill="#000000" id="svg_189" class="" fill-opacity="1"/><path d="M1599.87890625,807.671875 C1605.59890625,811.251875 1609.07890625,816.591875 1610.99890625,823.001875 C1611.78890625,830.231875 1610.77890625,836.301875 1607.99890625,843.001875 C1601.24890625,842.121875 1601.24890625,842.121875 1598.99890625,841.001875 C1599.15890625,840.301875 1599.31890625,839.601875 1599.47890625,838.871875 C1600.57890625,832.821875 1601.28890625,826.391875 1598.30890625,820.871875 C1592.77890625,816.391875 1586.84890625,816.331875 1579.99890625,817.001875 C1576.18890625,818.591875 1574.14890625,820.511875 1571.99890625,824.001875 C1571.59890625,826.841875 1571.59890625,826.841875 1571.74890625,829.871875 C1571.78890625,831.451875 1571.78890625,831.451875 1571.82890625,833.071875 C1572.00890625,836.101875 1572.33890625,839.031875 1572.99890625,842.001875 C1570.35890625,842.661875 1567.71890625,843.321875 1564.99890625,844.001875 C1562.26890625,838.531875 1561.44890625,834.141875 1561.49890625,828.061875 C1561.50890625,827.261875 1561.50890625,826.471875 1561.51890625,825.651875 C1561.67890625,820.581875 1562.10890625,816.561875 1565.36890625,812.471875 C1574.99890625,803.771875 1588.03890625,802.151875 1599.87890625,807.671875 z" fill="#000000" id="svg_191" class="" fill-opacity="1"/><path d="M1151.5625,804.5 C1156.5625,807.55 1160.1625,812.5 1162.0025,818 C1162.6225,825.35 1161.6925,831.16 1159.0025,838 C1156.3625,837.34 1153.7225,836.68 1151.0025,836 C1151.1625,835.3 1151.3125,834.6 1151.4825,833.88 C1152.0225,830.86 1152.2425,828 1152.3125,824.94 C1152.3525,823.92 1152.3825,822.89 1152.4225,821.84 C1151.8925,818.3 1150.7525,817.21 1148.0025,815 C1145.2025,813.6 1142.8025,813.75 1139.6825,813.69 C1137.9925,813.63 1137.9925,813.63 1136.2625,813.57 C1132.3525,814.08 1130.7825,815.27 1128.0025,818 C1126.8525,820.3 1126.6925,822.08 1126.4425,824.62 C1126.2925,826.07 1126.1525,827.51 1126.0025,829 C1130.9525,829 1135.9025,829 1141.0025,829 C1141.0025,832.3 1141.0025,835.6 1141.0025,839 C1134.0725,839 1127.1425,839 1120.0025,839 C1117.9725,833.93 1117.6625,830.84 1117.6825,825.56 C1117.6725,824.82 1117.6525,824.09 1117.6425,823.33 C1117.6325,817.45 1118.8225,813.34 1122.9425,808.92 C1123.6225,808.35 1124.3025,807.78 1125.0025,807.19 C1125.6825,806.6 1126.3625,806.02 1127.0625,805.42 C1132.9825,801.09 1144.9825,801.59 1151.5625,804.5 z" fill="#000000" id="svg_194" class="" fill-opacity="1"/><path d="M1711,1582 C1726.51,1582 1742.02,1582 1758,1582 C1758,1592.56 1758,1603.12 1758,1614 C1755.03,1614 1752.06,1614 1749,1614 C1749,1607.07 1749,1600.14 1749,1593 C1745.7,1593 1742.4,1593 1739,1593 C1739,1599.27 1739,1605.54 1739,1612 C1736.03,1612 1733.06,1612 1730,1612 C1730,1605.73 1730,1599.46 1730,1593 C1723.73,1593 1717.46,1593 1711,1593 C1711,1589.37 1711,1585.74 1711,1582 z" fill="#000000" id="svg_195" class="" fill-opacity="1"/><path d="M2304,1630 C2306.64,1630.33 2309.28,1630.66 2312,1631 C2312.33,1631.99 2312.66,1632.98 2313,1634 C2312.67,1634.66 2312.34,1635.32 2312,1636 C2311.88,1637.98 2311.82,1639.96 2311.81,1641.94 C2311.79,1643.53 2311.79,1643.53 2311.77,1645.15 C2311.78,1648.2 2311.78,1648.2 2314,1651 C2317.58,1651.25 2317.58,1651.25 2321,1651 C2322.67,1648.04 2323.33,1645.63 2323.62,1642.25 C2323.7,1641.45 2323.77,1640.65 2323.85,1639.83 C2323.9,1639.22 2323.95,1638.62 2324,1638 C2326.64,1638 2329.28,1638 2332,1638 C2332.04,1638.61 2332.07,1639.23 2332.11,1639.86 C2332.21,1641.08 2332.21,1641.08 2332.31,1642.31 C2332.37,1643.11 2332.43,1643.91 2332.49,1644.74 C2333.09,1647.4 2333.81,1648.4 2336,1650 C2338.65,1649.77 2338.65,1649.77 2341,1649 C2341.91,1643.44 2342.32,1639.32 2340,1634 C2345.75,1631 2345.75,1631 2348,1631 C2350.6,1635.51 2351.41,1638.8 2351.38,1644 C2351.39,1645.76 2351.39,1645.76 2351.4,1647.56 C2350.8,1652.76 2349.2,1655.96 2345.25,1659.38 C2341.41,1661.3 2339.24,1661.62 2335,1661 C2332.19,1659 2332.19,1659 2330,1657 C2329.34,1657 2328.68,1657 2328,1657 C2327.2,1657.8 2326.39,1658.61 2325.56,1659.44 C2322.5,1662.5 2320.95,1662.91 2316.69,1663.31 C2312.23,1662.94 2310.4,1661.87 2307,1659 C2301.54,1651.92 2301.51,1645.71 2302,1637 C2302.48,1634.52 2303.13,1632.38 2304,1630 z" fill="#000000" id="svg_196" class="" fill-opacity="1"/><path d="M1304,1587 C1304,1590.96 1304,1594.92 1304,1599 C1298.39,1601.17 1292.78,1603.03 1287,1604.69 C1285.84,1605.02 1285.84,1605.02 1284.65,1605.37 C1282.77,1605.92 1280.88,1606.46 1279,1607 C1281.82,1608.88 1283.91,1609.73 1287.11,1610.73 C1288.09,1611.04 1289.07,1611.35 1290.08,1611.66 C1291.11,1611.98 1292.13,1612.3 1293.19,1612.62 C1294.22,1612.95 1295.26,1613.27 1296.33,1613.61 C1298.88,1614.41 1301.44,1615.21 1304,1616 C1304,1619.96 1304,1623.92 1304,1628 C1289.64,1624.98 1276.34,1618.99 1263,1613 C1263,1609.37 1263,1605.74 1263,1602 C1272.26,1597.33 1281.53,1593.27 1291.38,1590 C1292.28,1589.7 1293.19,1589.4 1294.13,1589.08 C1300.58,1587 1300.58,1587 1304,1587 z" fill="#000000" id="svg_197" class="" fill-opacity="1"/><path d="M2532.875,1461.1875 C2536.355,1463.2075 2538.075,1464.4575 2539.995,1467.9975 C2540.835,1472.6775 2540.665,1476.5475 2537.995,1480.5675 C2537.345,1481.3675 2536.675,1482.1675 2535.995,1482.9975 C2536.805,1483.7875 2537.605,1484.5675 2538.435,1485.3775 C2541.665,1488.6875 2541.955,1489.1575 2542.185,1493.8075 C2542.115,1497.3375 2541.835,1499.9175 2539.995,1502.9975 C2534.015,1508.7275 2530.035,1509.1775 2521.995,1509.1875 C2521.285,1509.1975 2520.575,1509.2075 2519.845,1509.2275 C2516.065,1509.2375 2513.205,1509.1075 2509.995,1506.9975 C2510.325,1504.3575 2510.655,1501.7175 2510.995,1498.9975 C2511.985,1499.1675 2512.985,1499.3275 2513.995,1499.4975 C2518.845,1500.1775 2523.645,1500.6075 2528.435,1499.3775 C2530.285,1497.9875 2530.285,1497.9875 2530.935,1495.0675 C2531.305,1492.0775 2531.305,1492.0775 2529.825,1490.3475 C2527.455,1488.5975 2525.745,1488.5075 2522.815,1488.3075 C2521.915,1488.2475 2521.015,1488.1775 2520.085,1488.1175 C2519.395,1488.0775 2518.705,1488.0375 2517.995,1487.9975 C2517.995,1485.0275 2517.995,1482.0575 2517.995,1478.9975 C2521.635,1478.6675 2525.265,1478.3375 2528.995,1477.9975 C2529.045,1475.6675 2529.045,1473.3375 2528.995,1470.9975 C2527.985,1469.7675 2527.985,1469.7675 2525.895,1469.8675 C2519.385,1469.8675 2519.385,1469.8675 2512.995,1470.9975 C2511.235,1467.9075 2510.995,1466.7675 2510.995,1462.9975 C2518.185,1459.8075 2525.275,1458.3375 2532.875,1461.1875 z" fill="#000000" id="svg_202" class="" fill-opacity="1"/><path d="M2624,1463 C2626.55,1465.22 2627.78,1466.76 2628.38,1470.11 C2628.67,1475.69 2627.51,1478.72 2624,1483 C2624.8,1483.8 2625.61,1484.61 2626.44,1485.44 C2630.17,1489.17 2630.17,1489.17 2630.25,1493.75 C2630.2,1498.03 2629.86,1500.65 2627,1504 C2621.76,1508.6 2618.53,1509.18 2611.69,1509.19 C2610.93,1509.2 2610.17,1509.21 2609.38,1509.22 C2605.13,1509.24 2601.88,1508.96 2598,1507 C2598.33,1504.36 2598.66,1501.72 2599,1499 C2599.99,1499.16 2600.98,1499.33 2602,1499.5 C2608.29,1500.37 2613.62,1501.03 2619,1497 C2618.74,1494.66 2618.41,1492.32 2618,1490 C2615.57,1488.78 2613.58,1488.68 2610.88,1488.44 C2609.96,1488.35 2609.05,1488.27 2608.12,1488.18 C2607.42,1488.12 2606.72,1488.06 2606,1488 C2606,1485.03 2606,1482.06 2606,1479 C2609.63,1478.67 2613.26,1478.34 2617,1478 C2617.04,1475.67 2617.04,1473.33 2617,1471 C2615.98,1469.76 2615.98,1469.76 2613.86,1469.87 C2612.98,1469.87 2612.09,1469.87 2611.19,1469.88 C2610.31,1469.87 2609.44,1469.87 2608.54,1469.87 C2606.21,1469.99 2604.23,1470.34 2602,1471 C2600.38,1468.75 2600.38,1468.75 2599,1466 C2599.44,1463.81 2599.44,1463.81 2601,1462 C2608.34,1458.33 2617.03,1458.96 2624,1463 z" fill="#000000" id="svg_203" class="" fill-opacity="1"/><path d="M1266,804 C1268.31,804.33 1270.62,804.66 1273,805 C1274.47,809.61 1273.93,814.23 1273.74,819 C1273.74,821.98 1273.74,821.98 1275.35,823.87 C1277.02,825.17 1277.02,825.17 1279.5,825.5 C1282.18,825.25 1282.18,825.25 1283.58,822.89 C1285.19,819.61 1285.71,816.81 1286.19,813.19 C1286.46,811.15 1286.72,809.1 1287,807 C1295.25,807.33 1303.5,807.66 1312,808 C1312,816.58 1312,825.16 1312,834 C1309.36,834 1306.72,834 1304,834 C1304,828.39 1304,822.78 1304,817 C1301.03,817 1298.06,817 1295,817 C1294.9,818.2 1294.79,819.39 1294.69,820.62 C1294,825.93 1292.49,829.62 1288.5,833.31 C1283.88,836.43 1279.41,836.64 1274,836 C1269.34,833.89 1266.76,831.13 1264.69,826.55 C1262.67,819.07 1263.27,811.18 1266,804 z" fill="#000000" id="svg_205" class="" fill-opacity="1"/><path d="M2455,857 C2460.75,856.88 2460.75,856.88 2463,858 C2462.84,858.83 2462.67,859.65 2462.5,860.5 C2461.7,866.1 2461.62,871.47 2463,877 C2467.01,877.18 2467.01,877.18 2471,877 C2475.46,872.54 2475.49,865.99 2476,860 C2477.92,859.97 2479.83,859.95 2481.75,859.94 C2483.35,859.92 2483.35,859.92 2484.98,859.9 C2490.33,860.03 2495.67,860.56 2501,861 C2501,869.58 2501,878.16 2501,887 C2498.03,887 2495.06,887 2492,887 C2492,881.06 2492,875.12 2492,869 C2489.03,869 2486.06,869 2483,869 C2483.06,870.2 2483.12,871.39 2483.19,872.62 C2483.16,878.3 2481.21,881.57 2477.56,885.88 C2473.73,888.82 2469.6,888.75 2464.92,888.56 C2459.66,887.55 2456.81,884.59 2453.84,880.33 C2452.56,876.77 2452.71,873.23 2452.75,869.5 C2452.74,868.74 2452.73,867.98 2452.73,867.2 C2452.74,863.33 2452.81,860.27 2455,857 z" fill="#000000" id="svg_206" class="" fill-opacity="1"/><path d="M1412.1429443359375,877 C1417.8929443359375,876.88 1417.8929443359375,876.88 1420.1429443359375,878 C1419.9829443359376,878.83 1419.8129443359376,879.65 1419.6429443359375,880.5 C1418.8429443359373,886.1 1418.7629443359374,891.47 1420.1429443359375,897 C1424.1529443359377,897.18 1424.1529443359377,897.18 1428.1429443359375,897 C1432.6029443359375,892.54 1432.6329443359373,885.99 1433.1429443359375,880 C1435.0629443359376,879.97 1436.9729443359374,879.95 1438.8929443359375,879.94 C1440.4929443359374,879.92 1440.4929443359374,879.92 1442.1229443359375,879.9 C1447.4729443359374,880.03 1452.8129443359376,880.56 1458.1429443359375,881 C1458.1429443359375,889.58 1458.1429443359375,898.16 1458.1429443359375,907 C1455.1729443359377,907 1452.2029443359374,907 1449.1429443359375,907 C1449.1429443359375,901.06 1449.1429443359375,895.12 1449.1429443359375,889 C1446.1729443359377,889 1443.2029443359374,889 1440.1429443359375,889 C1440.2029443359374,890.2 1440.2629443359374,891.39 1440.3329443359376,892.62 C1440.3029443359374,898.3 1438.3529443359375,901.57 1434.7029443359374,905.88 C1430.8729443359375,908.82 1426.7429443359374,908.75 1422.0629443359376,908.56 C1416.8029443359374,907.55 1413.9529443359374,904.59 1410.9829443359376,900.33 C1409.7029443359374,896.77 1409.8529443359375,893.23 1409.8929443359375,889.5 C1409.8829443359373,888.74 1409.8729443359375,887.98 1409.8729443359375,887.2 C1409.8829443359373,883.33 1409.9529443359374,880.27 1412.1429443359375,877 z" fill="#000000" class="" fill-opacity="1" id="svg_3"/><path d="M2444.5,1129.6875 C2445.79,1129.6875 2447.08,1129.6975 2448.41,1129.6975 C2451.73,1129.9775 2454.02,1130.5575 2457,1131.9975 C2456.12,1137.7475 2456.12,1137.7475 2455,1139.9975 C2454.22,1139.8375 2453.43,1139.6675 2452.62,1139.4975 C2448.06,1138.8675 2443.6,1138.9175 2439,1138.9975 C2439.56,1142.0275 2440.03,1144.2975 2442.62,1146.1675 C2444.7,1147.2175 2446.79,1148.1575 2448.94,1149.0675 C2457.96,1152.9275 2457.96,1152.9275 2460,1157.9975 C2460.73,1162.1875 2460.42,1165.9175 2458.88,1169.8775 C2455.11,1174.1475 2450.02,1175.7575 2444.48,1176.2075 C2438.22,1176.3075 2433.71,1175.5875 2428,1172.9975 C2428.33,1170.6875 2428.66,1168.3775 2429,1165.9975 C2432,1164.9975 2432,1164.9975 2435,1165.9975 C2437.39,1166.0675 2439.79,1166.0875 2442.19,1166.0675 C2443.46,1166.0575 2444.73,1166.0475 2446.04,1166.0375 C2447.02,1166.0275 2447.99,1166.0075 2449,1165.9975 C2448.52,1162.5675 2448.52,1162.5675 2447,1158.9975 C2443.88,1157.0475 2443.88,1157.0475 2440.12,1155.8775 C2434.12,1153.7575 2430.89,1151.7675 2428,1145.9975 C2427.6,1141.8275 2427.74,1139.5075 2429.69,1135.7475 C2434.11,1130.4875 2437.7,1129.5975 2444.5,1129.6875 z" fill="#000000" id="svg_207" class="" fill-opacity="1"/><path d="M1753.125,1618.9375 C1756.235,1620.6975 1757.515,1623.4575 1758.565,1626.7975 C1759.765,1632.8275 1759.935,1638.9475 1757.375,1644.5575 C1754.165,1647.8575 1751.595,1649.7975 1746.895,1650.1675 C1737.065,1649.7275 1731.115,1642.3375 1724.685,1635.6975 C1722.105,1632.9975 1722.105,1632.9975 1719.005,1630.9975 C1719.005,1637.5975 1719.005,1644.1975 1719.005,1650.9975 C1716.355,1650.9975 1713.725,1650.9975 1711.005,1650.9975 C1711.005,1640.7675 1711.005,1630.5375 1711.005,1619.9975 C1720.585,1619.9975 1724.035,1620.9975 1730.455,1627.1975 C1731.585,1628.3575 1732.705,1629.5175 1733.815,1630.6875 C1738.515,1636.1475 1738.515,1636.1475 1745.065,1638.1275 C1747.885,1638.3375 1747.885,1638.3375 1749.005,1636.9975 C1749.385,1631.3175 1749.005,1628.0075 1746.005,1622.9975 C1750.345,1619.0175 1750.345,1619.0175 1753.125,1618.9375 z" fill="#000000" id="svg_208" class="" fill-opacity="1"/><path d="M2505.17578125,1280.6796875 C2506.81578125,1281.4996875 2506.81578125,1281.4996875 2508.99578125,1282.9996875 C2508.33578125,1285.3096875 2507.67578125,1287.6196875 2506.99578125,1289.9996875 C2501.38578125,1289.9996875 2495.77578125,1289.9996875 2489.99578125,1289.9996875 C2491.37578125,1294.8696875 2491.37578125,1294.8696875 2493.88578125,1296.1896875 C2494.62578125,1296.4596875 2495.36578125,1296.7196875 2496.12578125,1296.9996875 C2501.91578125,1299.3096875 2507.47578125,1301.7096875 2510.99578125,1306.9996875 C2511.26578125,1309.5596875 2511.26578125,1309.5596875 2511.24578125,1312.4396875 C2511.25578125,1313.8596875 2511.25578125,1313.8596875 2511.26578125,1315.3096875 C2510.83578125,1319.6496875 2509.65578125,1321.4496875 2506.31578125,1324.2496875 C2499.53578125,1327.8796875 2490.33578125,1326.7096875 2483.09578125,1325.1596875 C2481.56578125,1324.5896875 2481.56578125,1324.5896875 2479.99578125,1323.9996875 C2478.99578125,1320.9996875 2478.99578125,1320.9996875 2480.43578125,1317.8096875 C2480.95578125,1316.8796875 2481.46578125,1315.9596875 2481.99578125,1314.9996875 C2482.78578125,1315.3296875 2483.56578125,1315.6596875 2484.37578125,1315.9996875 C2488.91578125,1317.2496875 2493.31578125,1317.5696875 2497.99578125,1316.9996875 C2500.28578125,1315.1796875 2500.28578125,1315.1796875 2500.01578125,1312.5596875 C2499.19578125,1309.7396875 2499.19578125,1309.7396875 2496.23578125,1308.3796875 C2494.50578125,1307.6896875 2494.50578125,1307.6896875 2492.74578125,1306.9996875 C2487.28578125,1304.8196875 2482.73578125,1302.4696875 2479.99578125,1296.9996875 C2479.46578125,1292.5496875 2479.39578125,1289.0796875 2481.62578125,1285.1296875 C2488.13578125,1279.2996875 2496.75578125,1278.0496875 2505.17578125,1280.6796875 z" fill="#000000" id="svg_209" class="" fill-opacity="1"/><path d="M2197,1631 C2202.09,1638.03 2203.23,1644.42 2202,1653 C2200.47,1657.09 2197.62,1659.67 2194,1662 C2189.83,1662.91 2185.76,1662.86 2181.89,1660.97 C2177.16,1657.56 2173.17,1653.27 2169.18,1649.05 C2166.72,1646.59 2166.72,1646.59 2162,1644 C2162,1650.27 2162,1656.54 2162,1663 C2159.36,1663 2156.72,1663 2154,1663 C2154,1652.77 2154,1642.54 2154,1632 C2163.39,1632 2168.92,1634.67 2175.62,1641.19 C2179,1644.68 2179,1644.68 2179,1647 C2179.9,1647.43 2179.9,1647.43 2180.81,1647.88 C2183,1649 2183,1649 2186,1651 C2188.58,1651.25 2188.58,1651.25 2191,1651 C2192.57,1649.43 2192.21,1647.86 2192.25,1645.69 C2192.23,1641.75 2191.65,1639.99 2189,1637 C2190.27,1633.19 2192.81,1631 2197,1631 z" fill="#000000" id="svg_210" class="" fill-opacity="1"/><path d="M1426,1636 C1435.03,1636 1435.03,1636 1440.38,1639.5 C1440.93,1639.86 1441.48,1640.21 1442.04,1640.58 C1448.48,1644.84 1454.54,1649.54 1460,1655 C1460,1657.97 1460,1660.94 1460,1664 C1451.42,1664 1442.84,1664 1434,1664 C1434,1665.32 1434,1666.64 1434,1668 C1431.36,1668 1428.72,1668 1426,1668 C1426,1666.68 1426,1665.36 1426,1664 C1422.7,1664 1419.4,1664 1416,1664 C1416,1661.03 1416,1658.06 1416,1655 C1419.3,1655 1422.6,1655 1426,1655 C1426,1648.73 1426,1642.46 1426,1636 z" fill="#000000" id="svg_211" class="" fill-opacity="1"/><path d="M1580.2857055664062,887.4286499023438 C1589.3157055664062,887.4286499023438 1589.3157055664062,887.4286499023438 1594.6657055664064,890.9286499023438 C1595.2157055664063,891.2886499023436 1595.7657055664063,891.6386499023438 1596.3257055664062,892.0086499023437 C1602.7657055664063,896.2686499023437 1608.8257055664062,900.9686499023437 1614.2857055664062,906.4286499023438 C1614.2857055664062,909.3986499023438 1614.2857055664062,912.3686499023438 1614.2857055664062,915.4286499023438 C1605.7057055664063,915.4286499023438 1597.1257055664062,915.4286499023438 1588.2857055664062,915.4286499023438 C1588.2857055664062,916.7486499023437 1588.2857055664062,918.0686499023439 1588.2857055664062,919.4286499023438 C1585.6457055664061,919.4286499023438 1583.0057055664063,919.4286499023438 1580.2857055664062,919.4286499023438 C1580.2857055664062,918.1086499023438 1580.2857055664062,916.7886499023436 1580.2857055664062,915.4286499023438 C1576.9857055664063,915.4286499023438 1573.6857055664063,915.4286499023438 1570.2857055664062,915.4286499023438 C1570.2857055664062,912.4586499023437 1570.2857055664062,909.4886499023437 1570.2857055664062,906.4286499023438 C1573.5857055664062,906.4286499023438 1576.8857055664062,906.4286499023438 1580.2857055664062,906.4286499023438 C1580.2857055664062,900.1586499023438 1580.2857055664062,893.8886499023438 1580.2857055664062,887.4286499023438 z" fill="#000000" class="" fill-opacity="1" id="svg_4"/><path d="M2555,986 C2554.67,988.31 2554.34,990.62 2554,993 C2551,994 2551,994 2548,993 C2542.78,992.38 2539.2,992.07 2534.94,995.38 C2531.25,1000.37 2531.36,1004.92 2532,1011 C2533.29,1014.16 2534.88,1016.44 2538,1018 C2539.54,1018.22 2541.08,1018.41 2542.62,1018.56 C2544.07,1018.71 2545.51,1018.85 2547,1019 C2547,1014.38 2547,1009.76 2547,1005 C2549.97,1005 2552.94,1005 2556,1005 C2556.03,1008.31 2556.05,1011.62 2556.06,1014.94 C2556.07,1015.88 2556.08,1016.83 2556.09,1017.8 C2556.09,1018.7 2556.09,1019.6 2556.1,1020.53 C2556.1,1021.36 2556.11,1022.19 2556.11,1023.05 C2556,1025 2556,1025 2555,1026 C2547.25,1027.58 2537.58,1029.03 2530.5,1024.94 C2525.73,1021.39 2522.11,1016.92 2521,1011 C2520.1,1002.96 2521.22,996.63 2526,990 C2533.57,982.65 2545.51,981.78 2555,986 z" fill="#000000" id="svg_213" class="" fill-opacity="1"/><path d="M1147.89453125,1544.109375 C1152.51453125,1546.959375 1156.68453125,1550.579375 1158.00453125,1555.999375 C1159.17453125,1571.089375 1159.17453125,1571.089375 1156.00453125,1575.999375 C1153.65453125,1575.749375 1151.32453125,1575.409375 1149.00453125,1574.999375 C1148.50453125,1574.009375 1148.50453125,1574.009375 1148.00453125,1572.999375 C1148.49453125,1571.519375 1148.49453125,1571.519375 1149.00453125,1569.999375 C1149.39453125,1565.959375 1149.50453125,1562.039375 1149.00453125,1557.999375 C1146.13453125,1554.669375 1143.34453125,1553.269375 1138.94453125,1552.759375 C1133.43453125,1552.579375 1130.36453125,1553.289375 1126.00453125,1556.999375 C1124.85453125,1559.299375 1124.69453125,1561.079375 1124.43453125,1563.629375 C1124.29453125,1565.069375 1124.14453125,1566.509375 1124.00453125,1567.999375 C1128.62453125,1567.999375 1133.24453125,1567.999375 1138.00453125,1567.999375 C1138.00453125,1570.969375 1138.00453125,1573.939375 1138.00453125,1576.999375 C1131.40453125,1576.999375 1124.80453125,1576.999375 1118.00453125,1576.999375 C1114.61453125,1570.229375 1114.58453125,1560.589375 1116.84453125,1553.279375 C1118.04453125,1551.179375 1119.25453125,1549.669375 1121.00453125,1547.999375 C1121.51453125,1547.479375 1122.02453125,1546.959375 1122.55453125,1546.419375 C1129.18453125,1541.069375 1140.19453125,1541.159375 1147.89453125,1544.109375 z" fill="#000000" id="svg_215" class="" fill-opacity="1"/><path d="M2547.3125,1129.8125 C2549.2525,1129.7925 2549.2525,1129.7925 2551.2425,1129.7725 C2554.8625,1129.9925 2557.6325,1130.6825 2561.0025,1132.0025 C2560.5025,1135.7325 2560.1225,1137.8125 2558.0025,1141.0025 C2557.1725,1140.6725 2556.3525,1140.3425 2555.5025,1140.0025 C2550.4225,1138.5525 2546.1225,1138.0825 2541.1225,1140.2525 C2537.9325,1142.8825 2537.1025,1144.9425 2536.7025,1149.0625 C2536.6925,1150.1725 2536.6925,1151.2925 2536.6925,1152.4325 C2536.6725,1153.5525 2536.6525,1154.6625 2536.6325,1155.8125 C2537.0425,1159.3725 2537.8025,1161.1825 2540.0025,1164.0025 C2545.6925,1167.8625 2553.5925,1166.0925 2560.0025,1165.0025 C2561.2525,1167.9025 2562.0025,1169.7925 2562.0025,1173.0025 C2554.5025,1176.1825 2546.6525,1177.5925 2538.6725,1175.3425 C2532.4325,1172.5725 2528.2625,1167.9825 2525.6225,1161.7525 C2524.2025,1153.2125 2523.9725,1145.4025 2529.0025,1138.0025 C2534.7825,1131.8125 2538.7825,1129.8525 2547.3125,1129.8125 z" fill="#000000" id="svg_216" class="" fill-opacity="1"/><path d="M1565,1638 C1567.64,1638.33 1570.28,1638.66 1573,1639 C1572.84,1639.8 1572.67,1640.61 1572.5,1641.44 C1571.36,1649.16 1571.36,1649.16 1573.19,1656.56 C1575.56,1658.44 1577.05,1658.32 1580,1658 C1582.21,1653.97 1583.46,1650.56 1584,1646 C1586.31,1646 1588.62,1646 1591,1646 C1591.2,1646.96 1591.2,1646.96 1591.4,1647.93 C1591.58,1648.76 1591.76,1649.59 1591.94,1650.44 C1592.11,1651.26 1592.29,1652.08 1592.46,1652.93 C1592.81,1654.98 1592.81,1654.98 1594,1656 C1596.5,1656.17 1596.5,1656.17 1599,1656 C1600.24,1654.98 1600.24,1654.98 1600.13,1652.86 C1600.13,1651.53 1600.13,1651.53 1600.12,1650.19 C1600.13,1649.31 1600.13,1648.44 1600.13,1647.54 C1600.01,1645.21 1599.66,1643.23 1599,1641 C1601.2,1639.67 1602.53,1638.97 1605.12,1639.12 C1607.7,1640.33 1607.99,1641.35 1609,1644 C1609.3,1647.28 1609.3,1647.28 1609.31,1650.94 C1609.33,1652.14 1609.35,1653.35 1609.36,1654.59 C1608.89,1659.03 1607.31,1661.54 1604.38,1664.81 C1600.66,1666.67 1597.07,1666.56 1593,1666 C1589.94,1664.5 1589.94,1664.5 1588,1663 C1587.22,1663.83 1586.43,1664.65 1585.62,1665.5 C1582.02,1668.51 1578.91,1668.62 1574.33,1668.34 C1570.36,1667.76 1568.28,1666.65 1565.82,1663.48 C1562.14,1657.45 1562.27,1650.86 1563,1644 C1563.61,1641.98 1564.26,1639.97 1565,1638 z" fill="#000000" id="svg_224" class="" fill-opacity="1"/><path d="M1747,850 C1749.97,850 1752.94,850 1756,850 C1756,861.22 1756,872.44 1756,884 C1747.07,884 1747.07,884 1743.69,881.31 C1738.76,877.71 1733.61,875.35 1728,873 C1727.32,872.7 1726.64,872.4 1725.95,872.09 C1720.17,869.7 1714.16,868.87 1708,868 C1708,864.37 1708,860.74 1708,857 C1721.76,858.37 1734.19,862.83 1746,870 C1746.33,863.4 1746.66,856.8 1747,850 z" fill="#000000" id="svg_229" class="" fill-opacity="1"/><path d="M2194,857 C2196.64,857 2199.28,857 2202,857 C2202,867.89 2202,878.78 2202,890 C2193.32,890 2193.32,890 2189,886 C2178.19,879.63 2167.28,876.37 2155,874 C2155,870.7 2155,867.4 2155,864 C2169.89,864.79 2181.19,869.82 2194,877 C2194,870.4 2194,863.8 2194,857 z" fill="#000000" id="svg_232" class="" fill-opacity="1"/><path d="M2569,1130 C2572.3,1130 2575.6,1130 2579,1130 C2579,1141.88 2579,1153.76 2579,1166 C2585.6,1166 2592.2,1166 2599,1166 C2599,1168.97 2599,1171.94 2599,1175 C2589.1,1175 2579.2,1175 2569,1175 C2569,1160.15 2569,1145.3 2569,1130 z" fill="#000000" id="svg_233" class="" fill-opacity="1"/><path d="M1448,847 C1449.5,849.4 1449.5,849.4 1451,852.38 C1452.84,856.26 1452.84,856.26 1455.69,859.35 C1457,861 1457,861 1457,869 C1441.16,869 1425.32,869 1409,869 C1409,865.37 1409,861.74 1409,858 C1419.89,857.67 1430.78,857.34 1442,857 C1441.01,854.36 1440.02,851.72 1439,849 C1444.62,845.88 1444.62,845.88 1448,847 z" fill="#000000" id="svg_234" class="" fill-opacity="1"/><path d="M1601,852 C1602.85,854.65 1602.85,854.65 1604.62,857.94 C1606.92,862.26 1606.92,862.26 1610,866 C1610,868.31 1610,870.62 1610,873 C1594.16,873 1578.32,873 1562,873 C1562,869.7 1562,866.4 1562,863 C1573.22,863 1584.44,863 1596,863 C1594.68,860.36 1593.36,857.72 1592,855 C1592,854.34 1592,853.68 1592,853 C1597.49,850.41 1597.49,850.41 1601,852 z" fill="#000000" id="svg_238" class="" fill-opacity="1"/><path d="M2044,1633 C2044.4,1633.75 2044.8,1634.5 2045.21,1635.27 C2045.74,1636.25 2046.27,1637.24 2046.81,1638.25 C2047.6,1639.71 2047.6,1639.71 2048.39,1641.2 C2049.85,1643.97 2049.85,1643.97 2051.7,1645.86 C2053,1648 2053,1648 2053,1656 C2037.49,1656 2021.98,1656 2006,1656 C2006,1652.7 2006,1649.4 2006,1646 C2017.22,1646 2028.44,1646 2040,1646 C2038.68,1643.36 2037.36,1640.72 2036,1638 C2036.33,1637.01 2036.66,1636.02 2037,1635 C2039.43,1633.81 2041.28,1633 2044,1633 z" fill="#000000" id="svg_239" class="" fill-opacity="1"/><path d="M2624,1289 C2627.07,1290.72 2629.4,1292.81 2631,1296 C2631.99,1309.73 2631.99,1309.73 2628,1315 C2623.81,1317.57 2619.79,1317.68 2615,1317 C2611.6,1315.12 2610.35,1313.74 2608.69,1310.25 C2607.2,1303.2 2607.56,1298.26 2611,1292 C2614.34,1288.02 2619.17,1288.08 2624,1289 z" fill="#000000" id="svg_242" class="" fill-opacity="1"/><path d="M1600,1604 C1600.49,1605.01 1600.49,1605.01 1600.99,1606.05 C1601.43,1606.94 1601.86,1607.83 1602.31,1608.75 C1602.74,1609.63 1603.17,1610.51 1603.61,1611.42 C1604.88,1614 1604.88,1614 1606.67,1615.89 C1608,1618 1608,1618 1608,1625 C1593.48,1625 1578.96,1625 1564,1625 C1564,1622.03 1564,1619.06 1564,1616 C1579.35,1615.51 1579.35,1615.51 1595,1615 C1594.01,1612.36 1593.02,1609.72 1592,1607 C1597.75,1604 1597.75,1604 1600,1604 z" fill="#000000" id="svg_244" class="" fill-opacity="1"/><path d="M1451,1603 C1451.4,1603.76 1451.8,1604.52 1452.21,1605.3 C1452.74,1606.29 1453.27,1607.29 1453.81,1608.31 C1454.6,1609.79 1454.6,1609.79 1455.39,1611.3 C1456.79,1613.98 1456.79,1613.98 1458.7,1615.42 C1460,1617 1460,1617 1460,1624 C1445.48,1624 1430.96,1624 1416,1624 C1416,1621.03 1416,1618.06 1416,1615 C1426.23,1615 1436.46,1615 1447,1615 C1446.01,1613.02 1445.02,1611.04 1444,1609 C1444,1607.68 1444,1606.36 1444,1605 C1448.75,1603 1448.75,1603 1451,1603 z" fill="#000000" id="svg_245" class="" fill-opacity="1"/><path d="M2579,1281 C2582.3,1281 2585.6,1281 2589,1281 C2589,1295.52 2589,1310.04 2589,1325 C2585.7,1325 2582.4,1325 2579,1325 C2579,1310.48 2579,1295.96 2579,1281 z" fill="#000000" id="svg_246" class="" fill-opacity="1"/><path d="M2620,993 C2630,993 2630,993 2634,995 C2637.16,998.73 2637.46,1002.07 2637.29,1006.79 C2636.73,1011.04 2635.15,1013.96 2632,1016.81 C2627.66,1019.39 2625.47,1019 2620,1019 C2620,1010.42 2620,1001.84 2620,993 z" fill="#000000" id="svg_251" class="" fill-opacity="1"/><path d="M1129.714286327362,908.5714979171753 C1138.294286327362,908.5714979171753 1146.8742863273621,908.5714979171753 1155.714286327362,908.5714979171753 C1155.714286327362,915.0521875917912 1155.714286327362,915.0521875917912 1152.714286327362,917.925070643425 C1148.004286327362,920.1231602340937 1144.264286327362,920.283507195115 1138.714286327362,919.9294076561928 C1135.004286327362,918.8270222991704 1132.8642863273622,917.5442466109992 1130.714286327362,915.2526212930679 C1129.714286327362,913.2482842803001 1129.714286327362,913.2482842803001 1129.714286327362,908.5714979171753 z" fill="#032B67" class="" id="svg_1"/><path d="M1126.5914840698242,896.600830078125 C1128.3214840698242,896.600830078125 1130.0514840698243,896.610830078125 1131.7814840698243,896.620830078125 C1132.6914840698241,896.620830078125 1133.6014840698242,896.620830078125 1134.5314840698243,896.620830078125 C1137.4514840698241,896.630830078125 1140.3614840698242,896.640830078125 1143.2814840698243,896.650830078125 C1145.2514840698243,896.660830078125 1147.2214840698243,896.660830078125 1149.1914840698241,896.660830078125 C1154.0314840698243,896.6808300781249 1158.8714840698242,896.6908300781249 1163.711484069824,896.7108300781249 C1163.7614840698243,899.580830078125 1163.7914840698243,902.4508300781249 1163.8214840698242,905.320830078125 C1163.8314840698242,906.120830078125 1163.8514840698242,906.9308300781249 1163.8614840698242,907.7508300781251 C1163.9114840698242,915.550830078125 1162.8314840698242,922.5208300781251 1157.211484069824,928.2808300781251 C1156.3914840698242,928.7508300781251 1155.5614840698242,929.2208300781249 1154.711484069824,929.7108300781249 C1154.1414840698242,930.070830078125 1153.5714840698242,930.4208300781249 1152.9814840698243,930.7808300781251 C1147.2014840698241,933.150830078125 1138.5014840698243,932.7808300781251 1132.6514840698242,930.590830078125 C1127.0414840698243,927.0108300781251 1123.6014840698242,922.060830078125 1121.711484069824,915.7108300781249 C1121.3614840698242,912.570830078125 1121.3814840698242,909.4908300781251 1121.461484069824,906.340830078125 C1121.4714840698243,905.5208300781251 1121.4714840698243,904.7008300781249 1121.4814840698243,903.860830078125 C1121.5714840698242,896.7508300781251 1121.5714840698242,896.7508300781251 1126.5914840698242,896.600830078125 z" fill="#000000" class="" fill-opacity="1" id="svg_2"/><path d="M1717,818 C1720.96,818 1724.92,818 1729,818 C1729.28,829.84 1729.28,829.84 1727,833 C1723.38,833.75 1723.38,833.75 1720,834 C1715.56,829.2 1716.8,824.23 1717,818 z" fill="#000000" id="svg_275" class="" fill-opacity="1"/><path d="M1868,818 C1871.96,818 1875.92,818 1880,818 C1880.36,828.03 1880.36,828.03 1878.81,832.19 C1877,834 1877,834 1874.56,834.56 C1871.2,833.82 1870.12,832.69 1868,830 C1867.47,825.93 1867.82,822.12 1868,818 z" fill="#000000" id="svg_276" class="" fill-opacity="1"/><path d="M1881,861 C1882,862 1882,862 1882.31,865.81 C1882.26,868.83 1882.09,869.86 1880.44,872.5 C1877.05,874.58 1874.91,874.56 1871,874 C1868.15,872.03 1867.2,870.88 1866.44,867.5 C1867,865 1867,865 1868.94,862.69 C1872.99,860.46 1876.46,860.43 1881,861 z" fill="#000000" id="svg_277" class="" fill-opacity="1"/><path d="M2321.25,866.8125 C2322.59,866.8525 2322.59,866.8525 2323.95,866.8925 C2324.63,866.9325 2325.3,866.9625 2326,867.0025 C2326.11,868.6025 2326.19,870.2025 2326.25,871.8125 C2326.3,872.7025 2326.34,873.6025 2326.39,874.5225 C2326,877.0025 2326,877.0025 2324.17,878.7925 C2321.21,880.4425 2319.34,880.4825 2316,880.0025 C2313.63,878.3725 2313.63,878.3725 2312,876.0025 C2311.5,872.9325 2311.5,872.9325 2312,870.0025 C2315,867.0525 2317.12,866.6525 2321.25,866.8125 z" fill="#000000" id="svg_279" class="" fill-opacity="1"/><path d="M2024,867 C2026.38,868.56 2026.38,868.56 2028,870 C2026.82,874.33 2025.77,877.38 2022,880 C2018.88,879.94 2018.88,879.94 2016,879 C2014,876 2014,876 2014.19,872.5 C2015,869 2015,869 2016.19,867 C2019.04,865.42 2020.94,866.13 2024,867 z" fill="#000000" id="svg_281" class="" fill-opacity="1"/><path d="M1737,818 C1740.3,818 1743.6,818 1747,818 C1747.05,819.96 1747.09,821.92 1747.12,823.88 C1747.15,824.97 1747.17,826.06 1747.2,827.18 C1747,830 1747,830 1745,832 C1742.56,832.38 1742.56,832.38 1740,832 C1737.86,829.8 1737.06,828.49 1736.71,825.42 C1736.8,822.95 1736.9,820.47 1737,818 z" fill="#000000" id="svg_285" class="" fill-opacity="1"/><path d="M1889,818 C1892.3,818 1895.6,818 1899,818 C1899.36,826.07 1899.36,826.07 1897.81,830.06 C1896,832 1896,832 1893.44,832.5 C1891,832 1891,832 1889,829 C1888.8,826.3 1888.8,826.3 1888.88,823.31 C1888.89,822.32 1888.91,821.32 1888.93,820.3 C1888.95,819.54 1888.98,818.78 1889,818 z" fill="#000000" id="svg_286" class="" fill-opacity="1"/><path d="M2472,822 C2477.72,823.88 2483.37,825.85 2489,828 C2489,828.66 2489,829.32 2489,830 C2486.73,830.81 2484.46,831.63 2482.19,832.44 C2481.54,832.67 2480.9,832.9 2480.24,833.13 C2477.5,834.11 2474.76,835.08 2472,836 C2472,831.38 2472,826.76 2472,822 z" fill="#000000" id="svg_287" class="" fill-opacity="1"/><path d="M2471,1597 C2475.21,1597.84 2478.41,1598.89 2482.31,1600.56 C2483.38,1601.02 2484.45,1601.47 2485.55,1601.94 C2486.76,1602.47 2486.76,1602.47 2488,1603 C2485.42,1605.58 2482.91,1606.34 2479.5,1607.62 C2477.75,1608.29 2477.75,1608.29 2475.97,1608.98 C2473,1610 2473,1610 2471,1610 C2471,1605.71 2471,1601.42 2471,1597 z" fill="#000000" id="svg_288" class="" fill-opacity="1"/><path d="M1878,1601 C1883.87,1602.69 1889.44,1604.46 1895,1607 C1891.96,1609.51 1889.09,1610.88 1885.38,1612.19 C1884.41,1612.53 1883.45,1612.88 1882.46,1613.23 C1880,1614 1880,1614 1878,1614 C1878,1609.71 1878,1605.42 1878,1601 z" fill="#000000" id="svg_289" class="" fill-opacity="1"/><path d="M2026,823 C2031.73,824.15 2036.71,825.52 2042,828 C2042,828.66 2042,829.32 2042,830 C2039.9,830.84 2037.79,831.67 2035.69,832.5 C2034.52,832.96 2033.34,833.43 2032.14,833.91 C2029,835 2029,835 2026,835 C2026,831.04 2026,827.08 2026,823 z" fill="#000000" id="svg_290" class="" fill-opacity="1"/><path d="M2322,1597 C2327.87,1598.69 2333.44,1600.46 2339,1603 C2336.25,1605.75 2333,1606.47 2329.38,1607.62 C2328.67,1607.85 2327.96,1608.08 2327.23,1608.32 C2325.49,1608.89 2323.75,1609.44 2322,1610 C2322,1605.71 2322,1601.42 2322,1597 z" fill="#000000" id="svg_291" class="" fill-opacity="1"/><path d="M2323,823 C2328.73,824.15 2333.71,825.52 2339,828 C2339,828.66 2339,829.32 2339,830 C2336.9,830.84 2334.79,831.67 2332.69,832.5 C2331.52,832.96 2330.34,833.43 2329.14,833.91 C2326,835 2326,835 2323,835 C2323,831.04 2323,827.08 2323,823 z" fill="#000000" id="svg_292" class="" fill-opacity="1"/><path d="M2025,1597 C2030.87,1598.69 2036.44,1600.46 2042,1603 C2039.25,1605.75 2036,1606.47 2032.38,1607.62 C2031.67,1607.85 2030.96,1608.08 2030.23,1608.32 C2028.49,1608.89 2026.75,1609.44 2025,1610 C2025,1605.71 2025,1601.42 2025,1597 z" fill="#000000" id="svg_293" class="" fill-opacity="1"/><path d="M2173,1597 C2178.72,1598.88 2184.37,1600.85 2190,1603 C2187.25,1605.75 2184,1606.47 2180.38,1607.62 C2179.67,1607.85 2178.96,1608.08 2178.23,1608.32 C2176.49,1608.89 2174.75,1609.44 2173,1610 C2173,1605.71 2173,1601.42 2173,1597 z" fill="#000000" id="svg_294" class="" fill-opacity="1"/><path d="M2174,823 C2179.76,823.61 2184.72,825.76 2190,828 C2190,828.66 2190,829.32 2190,830 C2187.9,830.84 2185.79,831.67 2183.69,832.5 C2182.52,832.96 2181.34,833.43 2180.14,833.91 C2177,835 2177,835 2174,835 C2174,831.04 2174,827.08 2174,823 z" fill="#000000" id="svg_295" class="" fill-opacity="1"/><path d="M2042,867.75 C2045,868 2045,868 2047,870 C2047.33,873.14 2047.53,875.17 2045.81,877.87 C2043.3,879.43 2041.91,879.5 2039,879 C2036.69,877 2036.69,877 2035,875 C2037.53,868.12 2037.53,868.12 2042,867.75 z" fill="#000000" id="svg_298" class="" fill-opacity="1"/><path d="M1581,896 C1584.86,897.39 1587.97,899.19 1591.31,901.56 C1592.2,902.18 1593.08,902.8 1593.99,903.44 C1594.65,903.96 1595.32,904.47 1596,905 C1596,905.33 1596,905.66 1596,906 C1591.05,906 1586.1,906 1581,906 C1581,902.7 1581,899.4 1581,896 z" fill="#000000" id="svg_305" class="" fill-opacity="1"/></g><defs><filter id="f157" xmlns:inkscape="http://www.inkscape.org/namespaces/inkscape" inkscape:menu-tooltip="Make the lightest parts of the object progressively transparent" inkscape:menu="Transparency utilities" inkscape:label="Light eraser" height="1" width="1" y="0" x="0" color-interpolation-filters="sRGB">
            <feColorMatrix result="result14" type="luminanceToAlpha" in="SourceGraphic"/>
            <feComposite in="SourceGraphic" in2="result14" result="fbSourceGraphic" operator="out"/>
            <feBlend mode="normal" in2="fbSourceGraphic" result="result15"/>
        </filter></defs></svg>